<?xml version="1.0" encoding="UTF-8"?> <svg xmlns="http://www.w3.org/2000/svg" xmlns:xlink="http://www.w3.org/1999/xlink" width="222.26" height="193.099" viewBox="0 0 222.26 193.099"><defs><linearGradient id="linear-gradient" x1="0.506" y1="0.602" x2="0.855" y2="0.142" gradientUnits="objectBoundingBox"><stop offset="0" stop-color="#4e2572"></stop><stop offset="0.589" stop-color="#602b8a"></stop><stop offset="1" stop-color="#7d3bb7"></stop></linearGradient><linearGradient id="linear-gradient-2" x1="0.182" y1="0.95" x2="0.63" y2="0.087" gradientUnits="objectBoundingBox"><stop offset="0" stop-color="#0092aa"></stop><stop offset="0.414" stop-color="#00b9de"></stop><stop offset="0.562" stop-color="#00cdf1"></stop><stop offset="1" stop-color="#72eaf7"></stop></linearGradient><linearGradient id="linear-gradient-3" x1="0.8" y1="0.058" x2="0.211" y2="0.72" gradientUnits="objectBoundingBox"><stop offset="0" stop-color="#c8e9eb"></stop><stop offset="0.696" stop-color="#9cb3b3"></stop><stop offset="0.893" stop-color="#94aaa9"></stop></linearGradient><clipPath id="clip-path"><rect id="Rectangle_1014" data-name="Rectangle 1014" width="63.749" height="66.803" rx="11.698" transform="matrix(1, -0.021, 0.021, 1, 0, 1.348)" fill="none"></rect></clipPath><linearGradient id="linear-gradient-4" x1="-11.522" y1="13.838" x2="-11.523" y2="13.829" gradientUnits="objectBoundingBox"><stop offset="0" stop-color="#fff"></stop><stop offset="1" stop-color="#e3e3e3"></stop></linearGradient><radialGradient id="radial-gradient" cx="0.027" cy="0.046" r="1.266" gradientTransform="matrix(1.044, -0.021, 0.022, 1, 0.001, 0)" gradientUnits="objectBoundingBox"><stop offset="0" stop-color="#caffca"></stop><stop offset="0.174" stop-color="#80f084"></stop><stop offset="0.265" stop-color="#71e476"></stop><stop offset="0.35" stop-color="#5dd562"></stop><stop offset="0.441" stop-color="#56d05c"></stop><stop offset="0.564" stop-color="#46bd4b"></stop><stop offset="0.748" stop-color="#30a334"></stop><stop offset="0.822" stop-color="#229325"></stop><stop offset="0.881" stop-color="#1e8e21"></stop><stop offset="1" stop-color="#1e8e21"></stop></radialGradient><linearGradient id="linear-gradient-5" x1="0.229" y1="1.037" x2="0.455" y2="0.56" gradientUnits="objectBoundingBox"><stop offset="0" stop-color="#004583"></stop><stop offset="1" stop-color="#001c35"></stop></linearGradient><linearGradient id="linear-gradient-6" y1="0.5" x2="1" y2="0.5" gradientUnits="objectBoundingBox"><stop offset="0" stop-color="#fff"></stop><stop offset="1"></stop></linearGradient><linearGradient id="linear-gradient-7" y1="0.5" x2="1" y2="0.5" gradientUnits="objectBoundingBox"><stop offset="0.21" stop-color="#fff"></stop><stop offset="0.237" stop-color="#fff" stop-opacity="0.925"></stop><stop offset="0.324" stop-color="#fff" stop-opacity="0.714"></stop><stop offset="0.414" stop-color="#fff" stop-opacity="0.522"></stop><stop offset="0.504" stop-color="#fff" stop-opacity="0.361"></stop><stop offset="0.597" stop-color="#fff" stop-opacity="0.231"></stop><stop offset="0.691" stop-color="#fff" stop-opacity="0.129"></stop><stop offset="0.787" stop-color="#fff" stop-opacity="0.059"></stop><stop offset="0.888" stop-color="#fff" stop-opacity="0.016"></stop><stop offset="1" stop-color="#fff" stop-opacity="0"></stop></linearGradient><linearGradient id="linear-gradient-8" x1="1.029" y1="0.572" x2="0.291" y2="0.321" gradientUnits="objectBoundingBox"><stop offset="0" stop-color="#003b6f"></stop><stop offset="0.444" stop-color="#00294e"></stop><stop offset="1" stop-color="#001c35"></stop></linearGradient><linearGradient id="linear-gradient-9" x1="0.756" y1="0.963" x2="0.189" y2="0.137" gradientUnits="objectBoundingBox"><stop offset="0" stop-color="#f47a00"></stop><stop offset="0.501" stop-color="#f7a240"></stop><stop offset="1" stop-color="#f7cb9c"></stop></linearGradient><linearGradient id="linear-gradient-10" x1="0.711" y1="1.325" x2="-1.487" y2="-2.544" xlink:href="#linear-gradient-9"></linearGradient><linearGradient id="linear-gradient-11" x1="1.009" y1="-0.2" x2="0.268" y2="0.754" gradientUnits="objectBoundingBox"><stop offset="0" stop-color="#0087ff"></stop><stop offset="0.068" stop-color="#0083f7"></stop><stop offset="0.168" stop-color="#0078e4"></stop><stop offset="0.287" stop-color="#0067c4"></stop><stop offset="0.42" stop-color="#005098"></stop><stop offset="0.477" stop-color="#004583"></stop><stop offset="1" stop-color="#001c35"></stop></linearGradient><linearGradient id="linear-gradient-12" x1="0" y1="0.5" x2="1" y2="0.5" xlink:href="#linear-gradient-5"></linearGradient><linearGradient id="linear-gradient-13" x1="0.75" y1="0.848" x2="0.244" y2="0.123" xlink:href="#linear-gradient-9"></linearGradient><linearGradient id="linear-gradient-14" x1="0.455" y1="0.174" x2="0.577" y2="0.813" gradientUnits="objectBoundingBox"><stop offset="0.022" stop-color="#b77c5c"></stop><stop offset="0.141" stop-color="#ba7e5d"></stop><stop offset="0.25" stop-color="#c58661"></stop><stop offset="0.354" stop-color="#d89369"></stop><stop offset="0.438" stop-color="#eda372"></stop><stop offset="0.733" stop-color="#f5b68b"></stop><stop offset="1" stop-color="#ffcaa6"></stop></linearGradient><linearGradient id="linear-gradient-15" x1="1.022" y1="-0.024" x2="0.52" y2="0.573" xlink:href="#linear-gradient-7"></linearGradient><linearGradient id="linear-gradient-16" x1="0.197" y1="-0.031" x2="0.48" y2="0.452" gradientUnits="objectBoundingBox"><stop offset="0.21" stop-color="#fff"></stop><stop offset="0.28" stop-color="#fff" stop-opacity="0.973"></stop><stop offset="0.381" stop-color="#fff" stop-opacity="0.894"></stop><stop offset="0.503" stop-color="#fff" stop-opacity="0.769"></stop><stop offset="0.639" stop-color="#fff" stop-opacity="0.592"></stop><stop offset="0.788" stop-color="#fff" stop-opacity="0.369"></stop><stop offset="0.946" stop-color="#fff" stop-opacity="0.098"></stop><stop offset="1" stop-color="#fff" stop-opacity="0"></stop></linearGradient><linearGradient id="linear-gradient-17" x1="0.77" y1="0.71" x2="0.262" y2="0.36" xlink:href="#linear-gradient-9"></linearGradient><radialGradient id="radial-gradient-2" cx="0.5" cy="0.5" r="0.5" gradientUnits="objectBoundingBox"><stop offset="0" stop-color="#001027" stop-opacity="0.698"></stop><stop offset="1" stop-color="#041533" stop-opacity="0"></stop></radialGradient></defs><g id="Group_2138" data-name="Group 2138" transform="translate(-823.775 -236.574)"><g id="Group_1956" data-name="Group 1956" transform="matrix(1, 0.017, -0.017, 1, 689.806, 172.839)"><g id="Group_1953" data-name="Group 1953" transform="translate(-16.91 3.592)"><path id="Path_1471" data-name="Path 1471" d="M341.425,105.221c9.475,4.431,27.638,21.205,12.356,36.848,9.411-2.427,22.574-13.085,22.032-28.3C376.032,100,364,92,364,92c-9.636-4.812-17.033-1.06-22.576,13.225Z" transform="translate(-1 0.159)" fill="#402366"></path><path id="Path_1471-2" data-name="Path 1471" d="M338.439,104.891c9.474,4.431,29.071,21.842,13.789,37.485,9.411-2.427,21.141-13.722,20.6-28.937.22-13.772-10.982-22.225-10.982-22.225-7.413-2.768-17.863-.6-23.406,13.681Z" fill="url(#linear-gradient)"></path></g><g id="Group_1954" data-name="Group 1954" transform="translate(-10.562 6.369)"><path id="Path_1469" data-name="Path 1469" d="M351,84c-7.355-6.349-18.8-6.188-30.993,2.928-11.437,7.669-12,21.687-12,21.687C309.954,116.284,325,121,331,115c-1.764-10.306,1-28,20-31Z" fill="#0096af"></path><path id="Path_1469-2" data-name="Path 1469" d="M351.831,84.306c-7.354-6.348-23.628-9.494-35.824-.378-11.437,7.669-12,21.687-12,21.687,1.949,7.669,9.68,15.024,24.579,11.437-1.764-10.305,1.685-36.391,23.247-32.745Z" fill="url(#linear-gradient-2)"></path></g><g id="Group_1955" data-name="Group 1955" transform="matrix(1, 0.017, -0.017, 1, -3.842, -6.89)"><path id="Path_1470" data-name="Path 1470" d="M335.942,120.188c-7.243,6.42-29.139,17.778-36-1.922-1.639,9.173,6.783,23.175,19.377,28.946a19.517,19.517,0,0,0,20.22-1.073c5.1-5.308,7.7-16.233-1.8-26.912" fill="#a5bfbf"></path><path id="Path_1470-2" data-name="Path 1470" d="M335.337,120.485C328.11,126.9,306.112,136.7,299.268,117c-1.635,9.173,2.9,24.441,15.469,30.212,11.1,5.836,22.668-.923,22.668-.923,5.089-5.308,7.41-15.125-2.066-25.8" fill="url(#linear-gradient-3)"></path></g><g id="Group_1962" data-name="Group 1962" transform="translate(-33.077 64.705) rotate(-17)"><g id="Group_1961" data-name="Group 1961" transform="translate(156.129 64.281)"><path id="Path_2069" data-name="Path 2069" d="M218.59,134.142l-46.189.976c-4.587.1-13.417-3.923-13.514-8.51l3.978-49.575a8.306,8.306,0,0,1,8.128-8.48l41.24-4.013c7.536-.16,13.333,6.579,13.43,11.164l1.056,49.957A8.306,8.306,0,0,1,218.59,134.142Z" transform="translate(-156.518 -64.317)" fill="#24701c"></path><g id="Group_1792" data-name="Group 1792" transform="translate(0 0)"><g id="Group_1960" data-name="Group 1960"><g id="Group_1959" data-name="Group 1959" clip-path="url(#clip-path)"><g id="Group_1789" data-name="Group 1789" transform="translate(-1.942 -1.576)"><rect id="Rectangle_989" data-name="Rectangle 989" width="63.741" height="66.861" transform="matrix(1, -0.021, 0.021, 1, 2.206, 2.86)" fill="url(#linear-gradient-4)"></rect><path id="Path_1801" data-name="Path 1801" d="M167.187,72.25c8.15-6.392,15.436-10.707,16.272-9.642s-5.093,7.112-13.243,13.5-15.436,10.707-16.272,9.642a.361.361,0,0,1-.066-.161C153.609,84.178,159.376,78.375,167.187,72.25Z" transform="translate(-153.868 -62.446)" fill="#1a1a1a"></path><g id="Group_1788" data-name="Group 1788" transform="translate(1.688 1.413)"><path id="Path_1459" data-name="Path 1459" d="M214.591,64.093a.432.432,0,0,1,.4.665h0L198.831,87.715a.642.642,0,0,1-.905.074q-.03-.026-.057-.054h0l-6-6.416a.681.681,0,0,0-.963,0,.725.725,0,0,0-.094.117h0l-3.463,4.6a.755.755,0,0,0,.113.767h0l10.812,10.741a.643.643,0,0,0,.908.036.662.662,0,0,0,.053-.057h0l20.282-23.811a.444.444,0,0,1,.775.272h0l1.2,56.844a.453.453,0,0,1-.414.49.416.416,0,0,1-.057,0l-63.289,1.338a.454.454,0,0,1-.49-.415.406.406,0,0,1,0-.056h0l-1.4-66.366a.454.454,0,0,1,.415-.491.4.4,0,0,1,.056,0L214.591,64.1Zm-15.54,38.722a10.5,10.5,0,0,0-10.459,10.536c0,.155,0,.308.012.463.14,6.636,5.038,10.766,11.291,10.634a13.248,13.248,0,0,0,8.026-2.667.6.6,0,0,0,.079-.771h0l-1.786-2.56a.582.582,0,0,0-.771-.08,9.4,9.4,0,0,1-5.063,1.74,5.571,5.571,0,0,1-5.965-4.493.208.208,0,0,1,.189-.2l14.523-.307a.621.621,0,0,0,.565-.589h0l-.012-.577c-.143-6.733-4.472-11.26-10.628-11.13Zm-14.408-3.351a15.4,15.4,0,0,0-10.461-3.243c-6.541.138-10.5,4.071-10.4,8.687.222,10.484,16.117,6.78,16.22,11.685.033,1.539-1.473,3.11-4.744,3.179a12.084,12.084,0,0,1-8.435-3.089.643.643,0,0,0-.907.05.676.676,0,0,0-.053.067h0l-2.427,3.515a.6.6,0,0,0,.113.767c2.647,2.35,6.337,3.908,11.434,3.8,7.5-.158,11.076-4.083,11.163-9.088-.22-10.388-16.123-7.068-16.217-11.493-.034-1.633,1.386-2.82,3.885-2.874a11.948,11.948,0,0,1,7.653,2.436.608.608,0,0,0,.855-.1l.009-.011h0l2.429-3.419a.61.61,0,0,0-.1-.856l-.01-.008Zm14.594,7.582a4.845,4.845,0,0,1,5.191,4.316.206.206,0,0,1-.188.2l-9.811.207a.205.205,0,0,1-.2-.188,5.056,5.056,0,0,1,5.007-4.529Z" transform="translate(-155.833 -64.091)" fill="url(#radial-gradient)"></path></g></g></g></g></g></g></g><g id="Group_1940" data-name="Group 1940"><g id="Group_1939" data-name="Group 1939"><g id="Group_1928" data-name="Group 1928"><g id="Group_1938" data-name="Group 1938"><path id="Path_2039" data-name="Path 2039" d="M245.394,205.83s8.554-15.782,14.623-18.5c.406-.258-12.319-4.718-12.319-4.718s-7.294,14.7-7.147,20.31C240.4,203.587,245.394,205.83,245.394,205.83Z" fill="url(#linear-gradient-5)"></path><path id="Path_2031" data-name="Path 2031" d="M176.077,140.865l50.847,53.282,3.908-3.794L175.346,131.7Z" fill="url(#linear-gradient-6)"></path><path id="Path_2067" data-name="Path 2067" d="M227.924,193.147l-50.847-53.282-.552-6.921-1.179-1.246.731,9.167,50.847,53.282,3.908-3.794-.014-.015Z" opacity="0.54" fill="url(#linear-gradient-7)" style="mix-blend-mode: lighten;isolation: isolate"></path><path id="Path_2032" data-name="Path 2032" d="M221.527,188.487c3.081.439,6.526.924,8.708,1.231l.6.634-3.908,3.8Z" fill="#4e524d"></path><rect id="Rectangle_1006" data-name="Rectangle 1006" width="5.447" height="37.687" transform="translate(231.368 198.371) rotate(-44.19)" fill="#4e524d"></rect><rect id="Rectangle_1007" data-name="Rectangle 1007" width="5.447" height="37.687" transform="translate(229.67 196.598) rotate(-44.19)"></rect><path id="Path_2033" data-name="Path 2033" d="M276.417,207.134l2.69,6.2,10.676-6.708-4.208-3.029Z" fill="#f15a24"></path><path id="Path_2034" data-name="Path 2034" d="M283.073,177.233l28.06,5.548s7.274-3.333,18.437-2.485,11.02,4.5,12.063,3.967c3.141-2.737,8-10.86,11.5-9.419,2.343,1-3.978,10.043-3.978,10.043s-4.534,4.564-5.472,4.791a44.777,44.777,0,0,0-17.525.752c-8.742,1.913-11.828,4.184-13.505,6.8s-9.051,13.1-4.1,19.087a28.406,28.406,0,0,0,11.438,8.188s7.159,14.846,4.869,15.731-10.04-11.3-10.04-11.3-10.856,1.769-15.285-3.4-4.721-16.4-4.721-16.4l-40.687-20.912Z" fill="url(#linear-gradient-8)"></path><path id="Path_2036" data-name="Path 2036" d="M230.6,123.122s.066-17.541-15.956-23.9c-.665-.146-7.611,12.254-7.611,12.254S224.558,114.222,230.6,123.122Z" fill="url(#linear-gradient-9)"></path><path id="Path_2037" data-name="Path 2037" d="M227.619,122.924c-3.952-2.866-5.488-4.731-18.964-6.2-.665-.148-.667,6.129-.667,6.129S221.922,120.842,227.619,122.924Z" fill="url(#linear-gradient-10)"></path><ellipse id="Ellipse_295" data-name="Ellipse 295" cx="38.127" cy="42.893" rx="38.127" ry="42.893" transform="translate(203.539 180.456) rotate(-77.452)" fill="url(#linear-gradient-11)"></ellipse><path id="Path_2040" data-name="Path 2040" d="M288.164,188.828c.528.43-7.762,25.475-32.8,22l.075-3.471s16.985-1.1,22.012-17.42C278.268,189.416,282.258,184.027,288.164,188.828Z" fill="url(#linear-gradient-12)"></path><path id="Path_2041" data-name="Path 2041" d="M306.346,181.832c-.012.578-8.511,16.822-16.562,24.795-1.994-.444-4.837-2.82-4.837-2.82s8.213-11.309,9.559-24.145C293.719,179.021,306.346,181.832,306.346,181.832Z" fill="url(#linear-gradient-13)"></path><g id="Group_1929" data-name="Group 1929"><path id="Path_2042" data-name="Path 2042" d="M284.757,203.483c2.9-2.4,7.138-5.705,11.517-9.722A107.532,107.532,0,0,0,306.6,182.816a47.575,47.575,0,0,1-3.891,5.512,59.861,59.861,0,0,1-5.791,6.125A75.547,75.547,0,0,1,284.757,203.483Z" fill="#c66300"></path></g><path id="Path_2043" data-name="Path 2043" d="M245.331,203.376c1.846,1.109,4.8,2.795,4.8,2.795l5.317,1.183-.373,11.077-11.225.292-6.5-8.42,7.533-2.509Z" fill="#ffaf78"></path><path id="Path_2044" data-name="Path 2044" d="M237.064,192.8a49.939,49.939,0,0,0,4.319,4.1l-1.367,1.44,4.578,4.506-6.132,5.611-5.833-2-4.577-4.506Z" fill="#ffaf78"></path><g id="Group_1930" data-name="Group 1930"><path id="Path_2045" data-name="Path 2045" d="M241.379,196.9a23.61,23.61,0,0,1-2.8,3.465,15.289,15.289,0,0,1-3.477,2.81,23.545,23.545,0,0,1,2.8-3.465A15.268,15.268,0,0,1,241.379,196.9Z" fill="#e2803d"></path></g><path id="Path_2046" data-name="Path 2046" d="M234.345,187.456l-.239,6.08-3.952,3.654-5.778-.446a.627.627,0,0,1-.38-1.084l9.293-8.688a.627.627,0,0,1,1.056.484Z" fill="#262525"></path><path id="Path_2047" data-name="Path 2047" d="M288.526,215.415l1.258-8.787-4.615-2.771-2.92,11.558Z" fill="#f7931e"></path><g id="Group_1935" data-name="Group 1935"><path id="Path_2054" data-name="Path 2054" d="M241.377,215.761c-.044-.356,7.316-1.672,7.4-.959S241.421,216.117,241.377,215.761Z" fill="#e77736"></path></g><path id="Path_2055" data-name="Path 2055" d="M256.937,144.65c18.613-6.324,25.24-10.591,28.063-9.65a7.836,7.836,0,0,1,5.033,7.794c-.982,8.487,1.2,20.326-20.907,21.652a6.422,6.422,0,0,0-4.161,1.9c-13.046,13.114-26.938,7.737-34.335,5.318a13.725,13.725,0,0,1-2.488-1.1c-5.527-3.119-7.239-4.644-8.232-9.821C219,156,238.325,150.975,256.937,144.65Z" fill="url(#linear-gradient-14)"></path><g id="Group_1937" data-name="Group 1937"><path id="Path_2059" data-name="Path 2059" d="M258.93,208.3a18.815,18.815,0,0,1-1.275,2.771c-.311-.023-.626-.053-.942-.084.156-.331.323-.684.491-1.047.506-1.057,1-2.212,1.394-3.1.273-.063.557-.132.857-.21A16.831,16.831,0,0,1,258.93,208.3Z" fill="#f7931e"></path><path id="Path_2060" data-name="Path 2060" d="M264.746,210.78c-.314.05-.63.1-.95.138a56.838,56.838,0,0,1,.938-6.239c.125-.061.252-.125.378-.189A30.382,30.382,0,0,1,264.746,210.78Z" fill="#f7931e"></path><path id="Path_2061" data-name="Path 2061" d="M260.044,206.458q.4-.114.821-.246c.841,1.437,1.837,3.3,2.56,4.749q-.444.051-.9.088A51.659,51.659,0,0,1,260.044,206.458Z" fill="#f7931e"></path></g><ellipse id="Ellipse_295-2" data-name="Ellipse 295" cx="38.391" cy="42.744" rx="38.391" ry="42.744" transform="translate(202.788 179.693) rotate(-76.136)" opacity="0.54" fill="url(#linear-gradient-15)" style="mix-blend-mode: lighten;isolation: isolate"></ellipse></g></g><path id="Rectangle_1008" data-name="Rectangle 1008" d="M235.973,151.683c1.83-.211,5.232-1.458,17.452-.253h0a1.648,1.648,0,0,1-1.976,1.2c-6.07-1.4-10.135.139-15.432,2.05Z"></path><path id="Rectangle_1009" data-name="Rectangle 1009" d="M262.387,147.916A34.361,34.361,0,0,1,274.6,139l1.4,1.937a31.2,31.2,0,0,0-10.691,7.139,1.893,1.893,0,0,1-2.922-.16Z"></path></g></g><ellipse id="Ellipse_296" data-name="Ellipse 296" cx="5.411" cy="7.842" rx="5.411" ry="7.842" transform="translate(241.226 161.213) rotate(-22.043)" opacity="0.3" style="mix-blend-mode: multiply;isolation: isolate"></ellipse><ellipse id="Ellipse_296-2" data-name="Ellipse 296" cx="6.003" cy="8.504" rx="6.003" ry="8.504" transform="translate(240.516 157.731) rotate(-24.003)"></ellipse><ellipse id="Ellipse_298" data-name="Ellipse 298" cx="2.001" cy="2.501" rx="2.001" ry="2.501" transform="translate(243.61 160.169) rotate(-24.003)" fill="#fff"></ellipse><ellipse id="Ellipse_296-3" data-name="Ellipse 296" cx="5.411" cy="7.842" rx="5.411" ry="7.842" transform="translate(265.226 150.213) rotate(-22.043)" fill="#3c2212" opacity="0.4" style="mix-blend-mode: multiply;isolation: isolate"></ellipse><ellipse id="Ellipse_297" data-name="Ellipse 297" cx="5.292" cy="7.497" rx="5.292" ry="7.497" transform="translate(265.827 147.544) rotate(-21)"></ellipse><ellipse id="Ellipse_299" data-name="Ellipse 299" cx="2.001" cy="2.501" rx="2.001" ry="2.501" transform="translate(268.61 150.477) rotate(-24.003)" fill="#fff"></ellipse><path id="Path_2068" data-name="Path 2068" d="M212.759,144.052c4.575-20.554,27.029-33.044,50.152-27.9a46.459,46.459,0,0,1,22.461,12.031,46.306,46.306,0,0,0-23.461-13.031c-23.123-5.146-45.577,7.344-50.152,27.9-2.812,12.634,1.794,25.367,11.124,34.505C214.223,168.5,210.049,156.229,212.759,144.052Z" opacity="0.54" fill="url(#linear-gradient-16)" style="mix-blend-mode: lighten;isolation: isolate"></path><path id="Path_2062" data-name="Path 2062" d="M276,121s-43,23-65,23a24.521,24.521,0,0,0,.224,9.67c1.257,4.794,73.516-23.413,71.311-28.282C281,122,276,121,276,121Z" fill="url(#linear-gradient-17)"></path></g><ellipse id="Ellipse_301" data-name="Ellipse 301" cx="79.762" cy="7.34" rx="79.762" ry="7.34" transform="translate(874.975 414.992)" opacity="0.203" fill="url(#radial-gradient-2)"></ellipse></g></svg> 