<?xml version="1.0" encoding="UTF-8"?> <svg xmlns="http://www.w3.org/2000/svg" xmlns:xlink="http://www.w3.org/1999/xlink" width="580" height="386" viewBox="0 0 580 386"><defs><style>.a{fill:#e9f0f7;}.b{fill:url(#a);}.ag,.c{opacity:0.321;}.c{fill:url(#b);}.d{fill:#6c808e;}.af,.al,.bi,.bw,.e,.w{fill:none;}.e{stroke:#fff;}.af,.e{stroke-width:2px;}.f{fill:#9fb9cd;}.g{fill:url(#c);}.h{fill:#1a1715;}.ax,.ba,.bb,.bc,.bd,.be,.bg,.bh,.bj,.bk,.bl,.bm,.h,.s{fill-rule:evenodd;}.i{fill:url(#d);}.j{fill:#e24329;}.k{fill:#fca326;}.l{fill:#fc6d26;}.m{fill:url(#e);}.n{fill:#52218a;}.o{fill:#6c33af;}.p{fill:#854cc7;}.q{fill:#b179f1;}.r{opacity:0.25;}.s{fill:url(#f);}.t{opacity:0.347;}.t,.z{fill:url(#h);}.u{isolation:isolate;}.bs,.v{opacity:0.999;}.v{fill:url(#i);}.w{stroke-linecap:round;stroke-linejoin:round;opacity:0.644;}.ab,.ak,.bh,.x{fill:#fff;}.x{opacity:0.352;}.y{fill:#a568ac;opacity:0.626;}.z{opacity:0.305;}.aa{fill:url(#p);}.ab{opacity:0.436;}.ac{fill:#212052;}.ad{fill:url(#s);}.ae{fill:url(#t);}.af{stroke:rgba(255,255,255,0.85);}.ag{fill:#b8cddb;}.ah{fill:url(#u);}.ai{fill:url(#v);}.aj{fill:#9badb9;}.aj,.an{opacity:0.615;}.al{stroke:rgba(255,255,255,0.25);}.am{fill:url(#w);}.an{fill:#9caeba;}.ao{fill:url(#y);}.ap{fill:#bbc7d1;}.aq{fill:#8597a3;opacity:0.607;}.ar{fill:#bac7d0;}.as{fill:#05a2d8;}.at{fill:#923b95;}.au{fill:#f8a266;}.av{fill:#ef516f;}.aw{fill:#343434;}.ax{fill:#d33833;}.ay,.bj{fill:#ef3d3a;}.az,.bk{fill:#231f20;}.ba{fill:#f0d6b7;}.bb{fill:#335061;}.bc{fill:#6d6b6d;}.bd{fill:#dcd9d8;}.be,.bf{fill:#f7e4cd;}.bg{fill:#49728b;}.bi{stroke:#d33833;stroke-miterlimit:5;stroke-width:2.5px;}.bl{fill:#81b0c4;}.bm{fill:#1d1919;}.bn{fill:url(#ag);}.bo{fill:url(#ah);}.bp{fill:url(#ai);}.bq{fill:url(#aj);}.br{fill:#0072c6;}.bs{fill:url(#am);}.bt{fill:#879eae;opacity:0.894;}.bu{fill:url(#ao);}.bv,.bx{stroke:none;}.bx{fill:#fff;}.by{filter:url(#n);}.bz{filter:url(#j);}</style><linearGradient id="a" x1="0.5" x2="0.5" y2="1" gradientUnits="objectBoundingBox"><stop offset="0" stop-color="#9fb9cd"></stop><stop offset="1" stop-color="#879eae" stop-opacity="0.231"></stop></linearGradient><linearGradient id="b" x1="0.5" x2="0.5" y2="1" gradientUnits="objectBoundingBox"><stop offset="0" stop-color="#b8cddb"></stop><stop offset="0.611" stop-color="#e5edf5"></stop><stop offset="1" stop-color="#e9f0f7"></stop></linearGradient><linearGradient id="c" x1="-0.25" y1="1.112" x2="0.358" y2="-0.007" gradientUnits="objectBoundingBox"><stop offset="0" stop-color="#9fb9cd"></stop><stop offset="1" stop-color="#fff"></stop></linearGradient><linearGradient id="d" x1="-0.787" y1="1.752" x2="0.956" y2="0" xlink:href="#c"></linearGradient><linearGradient id="e" x1="-0.777" y1="1.544" x2="0.956" y2="0" xlink:href="#c"></linearGradient><linearGradient id="f" x1="0.5" y1="10.285" x2="0.5" y2="11.285" gradientUnits="objectBoundingBox"><stop offset="0" stop-color="#fff"></stop><stop offset="1" stop-color="#fff" stop-opacity="0"></stop></linearGradient><radialGradient id="h" cx="0.513" cy="0.5" r="0.513" gradientTransform="translate(0 0)" gradientUnits="objectBoundingBox"><stop offset="0" stop-color="#879eae"></stop><stop offset="0.793" stop-color="#879eae" stop-opacity="0.071"></stop><stop offset="0.926" stop-color="#879eae" stop-opacity="0"></stop><stop offset="1" stop-color="#879eae" stop-opacity="0"></stop></radialGradient><linearGradient id="i" x1="0.169" y1="1.013" x2="0.869" y2="0.202" gradientUnits="objectBoundingBox"><stop offset="0" stop-color="#923b95"></stop><stop offset="1" stop-color="#e4eef7"></stop></linearGradient><filter id="j" x="49.641" y="274.356" width="76.344" height="90.412"><feOffset dy="3"></feOffset><feGaussianBlur stdDeviation="3" result="k"></feGaussianBlur><feFlood flood-opacity="0.161"></feFlood><feComposite operator="in" in2="k"></feComposite><feComposite in="SourceGraphic"></feComposite></filter><filter id="n" x="79.096" y="255.404" width="76.344" height="90.412"><feOffset dy="3"></feOffset><feGaussianBlur stdDeviation="3" result="o"></feGaussianBlur><feFlood flood-opacity="0.161"></feFlood><feComposite operator="in" in2="o"></feComposite><feComposite in="SourceGraphic"></feComposite></filter><linearGradient id="p" y1="1" x2="0.557" y2="0.451" gradientUnits="objectBoundingBox"><stop offset="0" stop-color="#fff"></stop><stop offset="0.329" stop-color="#fff"></stop><stop offset="0.618" stop-color="#fff" stop-opacity="0.871"></stop><stop offset="1" stop-color="#eae8e8"></stop></linearGradient><linearGradient id="s" x1="0.041" y1="0.964" x2="1.077" y2="-0.069" gradientUnits="objectBoundingBox"><stop offset="0" stop-color="#212052"></stop><stop offset="0.523" stop-color="#5d2e75" stop-opacity="0.827"></stop><stop offset="0.912" stop-color="#923b95" stop-opacity="0.533"></stop><stop offset="1" stop-color="#923b95" stop-opacity="0.341"></stop></linearGradient><linearGradient id="t" x1="1" x2="0.03" y2="1" gradientUnits="objectBoundingBox"><stop offset="0" stop-color="#bebebe"></stop><stop offset="1" stop-color="#989898"></stop></linearGradient><linearGradient id="u" x1="0.727" y1="0.072" x2="0.967" y2="1" gradientUnits="objectBoundingBox"><stop offset="0" stop-color="#b8cddb"></stop><stop offset="1" stop-color="#5c676e"></stop></linearGradient><linearGradient id="v" x1="0.479" y1="1.273" x2="0.481" y2="0" xlink:href="#c"></linearGradient><linearGradient id="w" x1="0.89" y1="0.974" x2="0.878" y2="0.034" xlink:href="#u"></linearGradient><linearGradient id="y" x1="0.5" y1="1" x2="0.714" y2="-0.02" xlink:href="#c"></linearGradient><linearGradient id="ag" y1="0.652" x2="1" y2="0.652" gradientUnits="objectBoundingBox"><stop offset="0" stop-color="#905cfb"></stop><stop offset="0.068" stop-color="#776cf9"></stop><stop offset="0.173" stop-color="#5681f7"></stop><stop offset="0.287" stop-color="#3b92f5"></stop><stop offset="0.41" stop-color="#269ff4"></stop><stop offset="0.547" stop-color="#17a9f3"></stop><stop offset="0.711" stop-color="#0faef2"></stop><stop offset="0.968" stop-color="#0cb0f2"></stop></linearGradient><linearGradient id="ah" x1="0.053" y1="1.252" x2="0.989" y2="0.567" xlink:href="#ag"></linearGradient><linearGradient id="ai" x1="-0.276" y1="-0.389" x2="0.799" y2="0.372" gradientUnits="objectBoundingBox"><stop offset="0" stop-color="#3bea62"></stop><stop offset="0.117" stop-color="#31de80"></stop><stop offset="0.303" stop-color="#24cea8"></stop><stop offset="0.484" stop-color="#1ac1c9"></stop><stop offset="0.659" stop-color="#12b7df"></stop><stop offset="0.824" stop-color="#0eb2ed"></stop><stop offset="0.968" stop-color="#0cb0f2"></stop></linearGradient><linearGradient id="aj" x1="0.762" y1="0.946" x2="0.106" y2="-0.079" gradientUnits="objectBoundingBox"><stop offset="0" stop-color="#3bea62"></stop><stop offset="0.094" stop-color="#2fdb87"></stop><stop offset="0.196" stop-color="#24cea8"></stop><stop offset="0.306" stop-color="#1bc3c3"></stop><stop offset="0.426" stop-color="#14bad8"></stop><stop offset="0.56" stop-color="#10b5e7"></stop><stop offset="0.718" stop-color="#0db1ef"></stop><stop offset="0.968" stop-color="#0cb0f2"></stop></linearGradient><linearGradient id="am" x1="0.169" y1="1.013" x2="0.869" y2="0.202" gradientUnits="objectBoundingBox"><stop offset="0" stop-color="#879eae"></stop><stop offset="1" stop-color="#cde0ed"></stop></linearGradient><linearGradient id="ao" x1="0.159" y1="0.852" x2="0.903" y2="0.246" gradientUnits="objectBoundingBox"><stop offset="0" stop-color="#ef516f"></stop><stop offset="0.044" stop-color="#f0536f"></stop><stop offset="1" stop-color="#ff7f77"></stop></linearGradient></defs><g transform="translate(-1049 -2624)"><rect class="a" width="579" height="386" transform="translate(1049 2624)"></rect><path class="b" d="M4585-11291v-15c0-3.865,2.323-6.441,5.437-6.441h2.542v.031l111.019-.207v-.021l218.483-.085a1.367,1.367,0,0,1-.014-.188v-13.3h-5.328a2.634,2.634,0,0,1-1.964-4.518l9.956-9.492a2.874,2.874,0,0,1,3.931,0l9.957,9.492a2.634,2.634,0,0,1-1.967,4.518h-5.328v13.3a1.283,1.283,0,0,1-.048.348v3.262c0,2.735-3.709,4.591-11.081,4.591H4704v-.022l-110.993-.259.048,14Z" transform="translate(-3452 14107)"></path><g transform="translate(-17.553 13)"><g transform="translate(1229.993 2611)"><g transform="translate(6.437)"><rect class="c" width="160" height="119" rx="10" transform="translate(0.059)"></rect><path class="d" d="M5.526.09a1.155,1.155,0,0,1-.855-.315,1.131,1.131,0,0,1-.315-.837v-9.72H1.08Q0-10.782,0-11.736t1.08-.954H9.954q1.08,0,1.08.954t-1.08.954H6.678v9.72a1.131,1.131,0,0,1-.315.837A1.131,1.131,0,0,1,5.526.09Zm12.24-2.5a.606.606,0,0,1,.5.234.974.974,0,0,1,.189.63,1.091,1.091,0,0,1-.666.936A6.017,6.017,0,0,1,16.4-.063a5.714,5.714,0,0,1-1.476.207A4.586,4.586,0,0,1,11.556-1.08a4.487,4.487,0,0,1-1.242-3.348,5.137,5.137,0,0,1,.54-2.394,3.927,3.927,0,0,1,1.521-1.62A4.308,4.308,0,0,1,14.6-9.018a3.989,3.989,0,0,1,2.07.522A3.539,3.539,0,0,1,18.036-7.02a4.9,4.9,0,0,1,.486,2.25q0,.774-.684.774h-5.31a2.832,2.832,0,0,0,.7,1.827,2.362,2.362,0,0,0,1.728.585,3.277,3.277,0,0,0,1.017-.144,10.038,10.038,0,0,0,1-.4A1.987,1.987,0,0,1,17.766-2.412ZM14.652-7.434a1.932,1.932,0,0,0-1.467.576A2.72,2.72,0,0,0,12.528-5.2H16.6a2.567,2.567,0,0,0-.54-1.665A1.781,1.781,0,0,0,14.652-7.434ZM23.544.144A5.787,5.787,0,0,1,20.376-.63,1.074,1.074,0,0,1,19.8-1.6a.853.853,0,0,1,.2-.585.623.623,0,0,1,.486-.225,1.988,1.988,0,0,1,.846.288,7.88,7.88,0,0,0,1.053.414,4.289,4.289,0,0,0,1.215.144,2.311,2.311,0,0,0,1.179-.252.781.781,0,0,0,.423-.7.677.677,0,0,0-.171-.486,1.568,1.568,0,0,0-.612-.333,12.869,12.869,0,0,0-1.341-.351,5.152,5.152,0,0,1-2.3-.918,2.043,2.043,0,0,1-.693-1.638,2.363,2.363,0,0,1,.468-1.431,3.033,3.033,0,0,1,1.287-.99,4.689,4.689,0,0,1,1.863-.351,5.584,5.584,0,0,1,1.458.189,4.432,4.432,0,0,1,1.26.549A1.086,1.086,0,0,1,27-7.326a.923.923,0,0,1-.2.6.6.6,0,0,1-.486.243.974.974,0,0,1-.387-.081,5.193,5.193,0,0,1-.477-.243,7.547,7.547,0,0,0-.9-.405,2.807,2.807,0,0,0-.936-.135,1.812,1.812,0,0,0-1.053.27.853.853,0,0,0-.387.738.749.749,0,0,0,.4.684,5.671,5.671,0,0,0,1.53.468,8.73,8.73,0,0,1,1.89.576,2.213,2.213,0,0,1,.981.81,2.35,2.35,0,0,1,.3,1.242A2.308,2.308,0,0,1,26.253-.594,4.515,4.515,0,0,1,23.544.144ZM33.57-1.566q.9.054.9.81a.732.732,0,0,1-.351.657,1.675,1.675,0,0,1-1,.189L32.634.054a2.9,2.9,0,0,1-3.024-3.24V-7.11h-.9a1.143,1.143,0,0,1-.747-.216.771.771,0,0,1-.261-.63.771.771,0,0,1,.261-.63A1.143,1.143,0,0,1,28.71-8.8h.9v-1.656a1.012,1.012,0,0,1,.306-.774,1.159,1.159,0,0,1,.828-.288,1.134,1.134,0,0,1,.81.288,1.012,1.012,0,0,1,.306.774V-8.8h1.53a1.143,1.143,0,0,1,.747.216.771.771,0,0,1,.261.63.771.771,0,0,1-.261.63,1.143,1.143,0,0,1-.747.216H31.86v4.086q0,1.332,1.224,1.422Zm17.3.108a1.138,1.138,0,0,1,.216.63.844.844,0,0,1-.333.684,1.206,1.206,0,0,1-.783.27,1.179,1.179,0,0,1-.549-.135,1.181,1.181,0,0,1-.441-.405L46.584-4.05a2.332,2.332,0,0,0-.765-.81,2.09,2.09,0,0,0-1.053-.234H43v4.032a1.175,1.175,0,0,1-.306.855,1.1,1.1,0,0,1-.828.315,1.131,1.131,0,0,1-.837-.315,1.155,1.155,0,0,1-.315-.855v-10.53a1.076,1.076,0,0,1,.3-.81,1.127,1.127,0,0,1,.819-.288h4.5a4.923,4.923,0,0,1,3.285.963,3.459,3.459,0,0,1,1.125,2.781A3.516,3.516,0,0,1,49.9-6.525,3.962,3.962,0,0,1,47.538-5.31a2.269,2.269,0,0,1,.918.45,3.959,3.959,0,0,1,.774.9Zm-4.86-5.418a3.048,3.048,0,0,0,1.926-.5,1.84,1.84,0,0,0,.612-1.521,1.809,1.809,0,0,0-.612-1.521,3.134,3.134,0,0,0-1.926-.477H42.984v4.014ZM59.994-2.412a.606.606,0,0,1,.495.234.974.974,0,0,1,.189.63,1.091,1.091,0,0,1-.666.936,6.017,6.017,0,0,1-1.386.549A5.714,5.714,0,0,1,57.15.144,4.586,4.586,0,0,1,53.784-1.08a4.487,4.487,0,0,1-1.242-3.348,5.137,5.137,0,0,1,.54-2.394A3.927,3.927,0,0,1,54.6-8.442a4.308,4.308,0,0,1,2.223-.576A3.989,3.989,0,0,1,58.9-8.5,3.539,3.539,0,0,1,60.264-7.02a4.9,4.9,0,0,1,.486,2.25q0,.774-.684.774h-5.31a2.832,2.832,0,0,0,.7,1.827,2.362,2.362,0,0,0,1.728.585A3.277,3.277,0,0,0,58.2-1.728a10.039,10.039,0,0,0,1-.4A1.986,1.986,0,0,1,59.994-2.412ZM56.88-7.434a1.932,1.932,0,0,0-1.467.576A2.72,2.72,0,0,0,54.756-5.2h4.068a2.566,2.566,0,0,0-.54-1.665A1.781,1.781,0,0,0,56.88-7.434ZM67.644-9.018a3.648,3.648,0,0,1,2.025.576,3.819,3.819,0,0,1,1.386,1.629,5.629,5.629,0,0,1,.5,2.421A5.451,5.451,0,0,1,71.055-2,3.749,3.749,0,0,1,69.678-.414a3.723,3.723,0,0,1-2.034.558,3.484,3.484,0,0,1-1.674-.4,2.779,2.779,0,0,1-1.134-1.1V2.322a.934.934,0,0,1-.306.738,1.18,1.18,0,0,1-.81.27,1.166,1.166,0,0,1-.819-.288.976.976,0,0,1-.315-.756V-7.92a1.028,1.028,0,0,1,.3-.774,1.1,1.1,0,0,1,.8-.288,1.134,1.134,0,0,1,.81.288,1.012,1.012,0,0,1,.306.774v.45a2.762,2.762,0,0,1,1.143-1.143A3.511,3.511,0,0,1,67.644-9.018ZM67.05-1.6a2.017,2.017,0,0,0,1.656-.729A3.183,3.183,0,0,0,69.3-4.392a3.363,3.363,0,0,0-.594-2.124,1.987,1.987,0,0,0-1.656-.756,2,2,0,0,0-1.665.738A3.321,3.321,0,0,0,64.8-4.428a3.288,3.288,0,0,0,.585,2.088A2,2,0,0,0,67.05-1.6ZM77.418.144a4.843,4.843,0,0,1-2.367-.558,3.861,3.861,0,0,1-1.575-1.6,5.079,5.079,0,0,1-.558-2.43,5.026,5.026,0,0,1,.558-2.421A3.874,3.874,0,0,1,75.051-8.46a4.843,4.843,0,0,1,2.367-.558,4.843,4.843,0,0,1,2.367.558,3.818,3.818,0,0,1,1.566,1.593A5.093,5.093,0,0,1,81.9-4.446a5.147,5.147,0,0,1-.549,2.43,3.805,3.805,0,0,1-1.566,1.6A4.843,4.843,0,0,1,77.418.144ZM77.4-1.6a2.017,2.017,0,0,0,1.674-.72,3.345,3.345,0,0,0,.576-2.124,3.352,3.352,0,0,0-.576-2.115,1.986,1.986,0,0,0-1.656-.729,2.012,2.012,0,0,0-1.665.729,3.314,3.314,0,0,0-.585,2.115,3.345,3.345,0,0,0,.576,2.124A2,2,0,0,0,77.4-1.6ZM86.94.144A5.787,5.787,0,0,1,83.772-.63,1.074,1.074,0,0,1,83.2-1.6a.853.853,0,0,1,.2-.585.623.623,0,0,1,.486-.225,1.988,1.988,0,0,1,.846.288,7.88,7.88,0,0,0,1.053.414,4.289,4.289,0,0,0,1.215.144,2.311,2.311,0,0,0,1.179-.252.781.781,0,0,0,.423-.7.677.677,0,0,0-.171-.486,1.568,1.568,0,0,0-.612-.333,12.869,12.869,0,0,0-1.341-.351,5.152,5.152,0,0,1-2.295-.918,2.043,2.043,0,0,1-.693-1.638,2.363,2.363,0,0,1,.468-1.431,3.033,3.033,0,0,1,1.287-.99A4.689,4.689,0,0,1,87.1-9.018a5.584,5.584,0,0,1,1.458.189,4.432,4.432,0,0,1,1.26.549,1.086,1.086,0,0,1,.576.954.923.923,0,0,1-.2.6.6.6,0,0,1-.486.243.974.974,0,0,1-.387-.081,5.193,5.193,0,0,1-.477-.243,7.548,7.548,0,0,0-.9-.405,2.807,2.807,0,0,0-.936-.135,1.812,1.812,0,0,0-1.053.27.853.853,0,0,0-.387.738.749.749,0,0,0,.4.684,5.671,5.671,0,0,0,1.53.468,8.729,8.729,0,0,1,1.89.576,2.213,2.213,0,0,1,.981.81,2.35,2.35,0,0,1,.3,1.242A2.308,2.308,0,0,1,89.649-.594,4.515,4.515,0,0,1,86.94.144ZM93.6.108a1.163,1.163,0,0,1-.8-.279,1.014,1.014,0,0,1-.315-.8V-7.92a.986.986,0,0,1,.315-.792,1.187,1.187,0,0,1,.8-.27,1.222,1.222,0,0,1,.81.27.972.972,0,0,1,.324.792V-.972a1,1,0,0,1-.324.8A1.2,1.2,0,0,1,93.6.108Zm0-10.692a1.375,1.375,0,0,1-.972-.333,1.134,1.134,0,0,1-.36-.873,1.105,1.105,0,0,1,.36-.864,1.4,1.4,0,0,1,.972-.324,1.406,1.406,0,0,1,.963.324,1.093,1.093,0,0,1,.369.864,1.134,1.134,0,0,1-.36.873A1.375,1.375,0,0,1,93.6-10.584Zm8.028,9.018q.9.054.9.81a.732.732,0,0,1-.351.657,1.675,1.675,0,0,1-1,.189l-.486-.036a2.9,2.9,0,0,1-3.024-3.24V-7.11h-.9a1.143,1.143,0,0,1-.747-.216.771.771,0,0,1-.261-.63.771.771,0,0,1,.261-.63,1.143,1.143,0,0,1,.747-.216h.9v-1.656a1.012,1.012,0,0,1,.306-.774,1.159,1.159,0,0,1,.828-.288,1.134,1.134,0,0,1,.81.288,1.012,1.012,0,0,1,.306.774V-8.8h1.53a1.143,1.143,0,0,1,.747.216.771.771,0,0,1,.261.63.771.771,0,0,1-.261.63,1.143,1.143,0,0,1-.747.216h-1.53v4.086q0,1.332,1.224,1.422Zm6.084,1.71a4.843,4.843,0,0,1-2.367-.558,3.861,3.861,0,0,1-1.575-1.6,5.079,5.079,0,0,1-.558-2.43,5.026,5.026,0,0,1,.558-2.421,3.874,3.874,0,0,1,1.575-1.593,4.843,4.843,0,0,1,2.367-.558,4.843,4.843,0,0,1,2.367.558,3.818,3.818,0,0,1,1.566,1.593,5.093,5.093,0,0,1,.549,2.421,5.147,5.147,0,0,1-.549,2.43,3.805,3.805,0,0,1-1.566,1.6A4.843,4.843,0,0,1,107.712.144ZM107.694-1.6a2.017,2.017,0,0,0,1.674-.72,3.345,3.345,0,0,0,.576-2.124,3.352,3.352,0,0,0-.576-2.115,1.986,1.986,0,0,0-1.656-.729,2.012,2.012,0,0,0-1.665.729,3.314,3.314,0,0,0-.585,2.115,3.345,3.345,0,0,0,.576,2.124A2,2,0,0,0,107.694-1.6Zm11.268-7.38a.969.969,0,0,1,.738.2.879.879,0,0,1,.27.7.981.981,0,0,1-.234.72,1.438,1.438,0,0,1-.846.306L118.35-7a2.187,2.187,0,0,0-1.557.72,2.354,2.354,0,0,0-.5,1.53v3.78a1,1,0,0,1-.324.8,1.2,1.2,0,0,1-.81.279,1.163,1.163,0,0,1-.8-.279,1.014,1.014,0,0,1-.315-.8V-7.938a.964.964,0,0,1,.315-.774,1.161,1.161,0,0,1,.783-.27,1.083,1.083,0,0,1,.756.261.957.957,0,0,1,.288.747v.72a2.664,2.664,0,0,1,1.017-1.224,3.118,3.118,0,0,1,1.5-.486Zm8.658.648a1.042,1.042,0,0,1,.387-.477.977.977,0,0,1,.531-.153,1.133,1.133,0,0,1,.747.279.869.869,0,0,1,.333.693.926.926,0,0,1-.108.414L124.6,2.718a1,1,0,0,1-.954.612,1.109,1.109,0,0,1-.729-.261.818.818,0,0,1-.315-.657,1.162,1.162,0,0,1,.108-.45L123.93-.612l-3.348-6.966a.914.914,0,0,1-.09-.414.877.877,0,0,1,.351-.7,1.228,1.228,0,0,1,.8-.288,1.054,1.054,0,0,1,.558.153,1.021,1.021,0,0,1,.4.477l2.52,5.562Z" transform="translate(15.059 33)"></path></g><g class="e" transform="translate(6.232 0.434)"><rect class="bv" width="160" height="119" rx="10"></rect><rect class="bw" x="1" y="1" width="158" height="117" rx="9"></rect></g><g transform="translate(0 56.027)"><rect class="f" width="47" height="49.309" rx="5" transform="matrix(0.995, -0.105, 0.105, 0.995, 2.811, 4.913)"></rect><rect class="g" width="48" height="48" rx="5" transform="matrix(0.995, -0.105, 0.105, 0.995, 0, 7.835)"></rect><path class="h" d="M16.288,0A16.291,16.291,0,0,0,11.14,31.747c.815.149,1.112-.353,1.112-.785,0-.387-.014-1.411-.022-2.771-4.531.985-5.487-2.183-5.487-2.183a4.315,4.315,0,0,0-1.809-2.383c-1.479-1.011.112-.99.112-.99a3.42,3.42,0,0,1,2.495,1.678,3.468,3.468,0,0,0,4.741,1.354,3.482,3.482,0,0,1,1.034-2.178C9.7,23.078,5.9,21.681,5.9,15.438a6.3,6.3,0,0,1,1.677-4.371,5.852,5.852,0,0,1,.16-4.311s1.367-.438,4.479,1.67a15.448,15.448,0,0,1,8.156,0c3.11-2.108,4.475-1.67,4.475-1.67a5.854,5.854,0,0,1,.163,4.311,6.286,6.286,0,0,1,1.674,4.371c0,6.258-3.809,7.635-7.438,8.038a3.889,3.889,0,0,1,1.106,3.017c0,2.178-.02,3.935-.02,4.469,0,.435.294.942,1.12.783A16.292,16.292,0,0,0,16.288,0Z" transform="translate(8.035 15.415) rotate(-8)"></path></g><g transform="translate(64.231 77)"><rect class="f" width="48" height="48" rx="5"></rect><rect class="i" width="48" height="48" rx="5" transform="translate(0 2)"></rect><g transform="translate(8.56 11.779)"><path class="j" d="M236.35,261.068h0l5.689-17.5H230.669l5.681,17.5Z" transform="translate(-220.911 -232.627)"></path><path class="k" d="M125.767,243.57h0l-1.732,5.316a1.178,1.178,0,0,0,.426,1.316l14.955,10.866-13.649-17.5Z" transform="translate(-123.977 -232.627)"></path><path class="j" d="M143.549,134.868h7.968l-3.429-10.538a.592.592,0,0,0-1.122,0l-3.417,10.538Z" transform="translate(-141.759 -123.925)"></path><path class="k" d="M306.435,243.57h0l1.726,5.316a1.178,1.178,0,0,1-.426,1.316l-14.957,10.866,13.657-17.5Z" transform="translate(-277.339 -232.627)"></path><path class="j" d="M362.945,134.868h-7.968l3.423-10.538a.592.592,0,0,1,1.122,0l3.423,10.538Z" transform="translate(-333.85 -123.925)"></path><path class="l" d="M292.778,261.068l5.689-17.5h7.968Z" transform="translate(-277.339 -232.627)"></path><path class="l" d="M157.2,261.068l-13.649-17.5h7.968Z" transform="translate(-141.759 -232.627)"></path></g></g><g transform="translate(121.756 56.626)"><rect class="f" width="48" height="48" rx="5" transform="matrix(0.995, 0.105, -0.105, 0.995, 5.017, 0)"></rect><path class="m" d="M5,0H43a5,5,0,0,1,5,5V43a5,5,0,0,1-5,5H5a5,5,0,0,1-5-5V5A5,5,0,0,1,5,0Z" transform="matrix(0.995, 0.105, -0.105, 0.995, 7.216, 2.22)"></path><g transform="translate(13.653 16.114)"><path class="n" d="M4.071,35.791a1.174,1.174,0,0,1-1.215.191l-2.134-.9A1.174,1.174,0,0,1,0,34.01V21.489a1.174,1.174,0,0,1,.722-1.077l2.134-.88a1.174,1.174,0,0,1,1.215.191l.478.4a.649.649,0,0,0-1.027.528V34.852a.648.648,0,0,0,1.027.528Z" transform="translate(0 -13.737)"></path><path class="o" d="M.722,21.354A1.174,1.174,0,0,1,0,20.277v-.1a.678.678,0,0,0,1.174.455L19.371.516a1.761,1.761,0,0,1,2-.34l5.805,2.794a1.761,1.761,0,0,1,1,1.588v.068a1.112,1.112,0,0,0-1.817-.86L4.549,21.647l-.478.411a1.174,1.174,0,0,1-1.215.191Z" transform="translate(0 -0.004)"></path><path class="p" d="M.722,20.4A1.174,1.174,0,0,0,0,21.478v.1a.678.678,0,0,1,1.174-.455l18.2,20.119a1.761,1.761,0,0,0,2,.34l5.805-2.794a1.761,1.761,0,0,0,1-1.588v-.068a1.112,1.112,0,0,1-1.817.86L4.549,20.107,4.071,19.7a1.174,1.174,0,0,0-1.215-.176Z" transform="translate(0 -13.725)"></path><path class="q" d="M68,27.857a1.761,1.761,0,0,1-2-.34,1.033,1.033,0,0,0,1.761-.731V1.252A1.033,1.033,0,0,0,66,.516a1.761,1.761,0,0,1,2-.34l5.805,2.791a1.761,1.761,0,0,1,1,1.588V23.479a1.761,1.761,0,0,1-1,1.588Z" transform="translate(-46.629 -0.004)"></path><g class="r" transform="translate(0 -0.003)"><path class="s" d="M20.219,27.983a1.76,1.76,0,0,0,1.153-.129l5.805-2.791a1.761,1.761,0,0,0,1-1.588V4.55a1.761,1.761,0,0,0-1-1.588L21.372.171a1.749,1.749,0,0,0-2,.34L10.014,10.86,4.549,6.382l-.478-.411a1.173,1.173,0,0,0-1.06-.244.748.748,0,0,0-.156.053l-2.134.9A1.174,1.174,0,0,0,0,7.664v12.7a1.174,1.174,0,0,0,.722.989l2.134.88a.748.748,0,0,0,.156.053,1.173,1.173,0,0,0,1.06-.244l.478-.4,5.465-4.479,9.357,10.349A1.761,1.761,0,0,0,20.219,27.983Zm.913-19.934-7.276,5.964,7.276,5.964ZM3.522,9.983l3.642,4.03-3.642,4.03Z" transform="translate(0 0.003)"></path></g></g></g></g><g transform="translate(1093.298 2812.549)"><rect class="c" width="151" height="115.5" rx="10" transform="translate(0 2)"></rect><g class="e" transform="translate(0.255)"><rect class="bv" width="151" height="119" rx="10"></rect><rect class="bw" x="1" y="1" width="149" height="117" rx="9"></rect></g><g transform="translate(29.234 78.806)"><g transform="translate(0 0)"><ellipse class="t" cx="31.894" cy="6.894" rx="31.894" ry="6.894" transform="translate(0 63.598)"></ellipse><g class="u" transform="translate(2.662 0)"><path class="v" d="M38.818,3H13.293A7.267,7.267,0,0,0,6,10.241V68.168a7.267,7.267,0,0,0,7.293,7.241H57.051a7.267,7.267,0,0,0,7.293-7.241V28.343Z" transform="translate(-6 -2.997)"></path><g class="bz" transform="matrix(1, 0, 0, 1, -58.64, -280.36)"><g class="w" transform="translate(52.64 277.36)"><path class="bv" d="M38.818,3H13.293A7.267,7.267,0,0,0,6,10.241v57.93a7.267,7.267,0,0,0,7.293,7.241H57.051a7.267,7.267,0,0,0,7.293-7.241V28.344Z"></path><path class="bx" d="M 13.29295349121094 5 C 10.37441253662109 5 8 7.351188659667969 8 10.24119567871094 L 8 68.17078399658203 C 8 71.06078338623047 10.37441253662109 73.41197204589844 13.29295349121094 73.41197204589844 L 57.05069732666016 73.41197204589844 C 59.96925354003906 73.41197204589844 62.34366607666016 71.06078338623047 62.34366607666016 68.17078399658203 L 62.34366607666016 29.17679977416992 L 37.99404907226562 5 L 13.29295349121094 5 M 13.29295349121094 3 L 38.81831359863281 3 L 64.34366607666016 28.34419631958008 L 64.34366607666016 68.17078399658203 C 64.34366607666016 72.16998291015625 61.07848739624023 75.41197204589844 57.05069732666016 75.41197204589844 L 13.29295349121094 75.41197204589844 C 9.265167236328125 75.41197204589844 6 72.16998291015625 6 68.17078399658203 L 6 10.24119567871094 C 6 6.241996765136719 9.265167236328125 3 13.29295349121094 3 Z"></path></g></g></g></g><rect class="x" width="24" height="18" rx="1" transform="translate(4.737 13.211)"></rect><path class="y" d="M1.106-9.142h2.4a3.552,3.552,0,0,1,2.066.534,1.979,1.979,0,0,1,.766,1.747,2.132,2.132,0,0,1-.782,1.8,3.18,3.18,0,0,1-2.006.606H2.616v2.513H1.106ZM3.453-5.66q1.411,0,1.411-1.2a.942.942,0,0,0-.358-.827,1.91,1.91,0,0,0-1.1-.253H2.616V-5.66ZM7.63-9.142H9.625a3.686,3.686,0,0,1,2.639.893,3.521,3.521,0,0,1,.942,2.678,3.642,3.642,0,0,1-.931,2.705,3.486,3.486,0,0,1-2.562.92H7.63ZM9.537-3.169q2.116,0,2.116-2.4a2.484,2.484,0,0,0-.546-1.8,2.113,2.113,0,0,0-1.57-.551h-.4v4.75Zm5.058-5.973h4.474v1.267H16.1v1.8h2.535v1.267H16.1v2.865h-1.51Z" transform="translate(6.165 28.184)"></path></g><g transform="translate(42.022 59.5)"><g transform="translate(0 0)"><ellipse class="z" cx="44.894" cy="10.727" rx="44.894" ry="10.727" transform="translate(0.044 58.037)"></ellipse><g class="u" transform="translate(19.328 0)"><g transform="translate(0 0.354)"><path class="v" d="M38.818,3H13.293A7.267,7.267,0,0,0,6,10.241V68.168a7.267,7.267,0,0,0,7.293,7.241H57.051a7.267,7.267,0,0,0,7.293-7.241V28.343Z" transform="translate(-6 -2.997)"></path><g class="by" transform="matrix(1, 0, 0, 1, -88.1, -261.4)"><g class="w" transform="translate(82.1 258.4)"><path class="bv" d="M38.818,3H13.293A7.267,7.267,0,0,0,6,10.241v57.93a7.267,7.267,0,0,0,7.293,7.241H57.051a7.267,7.267,0,0,0,7.293-7.241V28.344Z"></path><path class="bx" d="M 13.29295349121094 5 C 10.37441253662109 5 8 7.351188659667969 8 10.24119567871094 L 8 68.17078399658203 C 8 71.06078338623047 10.37441253662109 73.41197204589844 13.29295349121094 73.41197204589844 L 57.05069732666016 73.41197204589844 C 59.96925354003906 73.41197204589844 62.34366607666016 71.06078338623047 62.34366607666016 68.17078399658203 L 62.34366607666016 29.17679977416992 L 37.99404907226562 5 L 13.29295349121094 5 M 13.29295349121094 3 L 38.81831359863281 3 L 64.34366607666016 28.34419631958008 L 64.34366607666016 68.17078399658203 C 64.34366607666016 72.16998291015625 61.07848739624023 75.41197204589844 57.05069732666016 75.41197204589844 L 13.29295349121094 75.41197204589844 C 9.265167236328125 75.41197204589844 6 72.16998291015625 6 68.17078399658203 L 6 10.24119567871094 C 6 6.241996765136719 9.265167236328125 3 13.29295349121094 3 Z"></path></g></g></g><path class="aa" d="M1.739.085c16.606,16.606,4.18,4.24,25.395,25.455,0,.652-.493,1.621-1.145,1.621H1.181A1.181,1.181,0,0,1,0,25.979V1.172C0,.52.345-.109,1.739.085Z" transform="translate(31.332 -0.049)"></path></g></g><g transform="translate(27.774 39.216)"><rect class="x" width="6" height="12" rx="1" transform="translate(8 13)"></rect><rect class="x" width="6" height="25" rx="1"></rect><rect class="x" width="6" height="19" rx="1" transform="translate(16 6)"></rect><rect class="x" width="6" height="22" rx="1" transform="translate(25 3)"></rect><rect class="x" width="6" height="13" rx="1" transform="translate(33 12)"></rect></g><path class="x" d="M10.631,21.263A10.631,10.631,0,1,1,10.631,0V10.631H21.262A10.644,10.644,0,0,1,10.631,21.263Z" transform="translate(30.457 9.324) rotate(19)"></path><path class="ab" d="M0,9.45V0A9.45,9.45,0,0,1,9.45,9.45Z" transform="translate(41.626 13.168) rotate(19)"></path></g></g><g transform="translate(1066.553 2611)"><rect class="c" width="123" height="116" rx="10" transform="translate(0.394 2)"></rect><g class="e"><rect class="bv" width="123.894" height="119" rx="10"></rect><rect class="bw" x="1" y="1" width="121.894" height="117" rx="9"></rect></g></g><g transform="translate(1281.553 2812.549)"><rect class="c" width="332.199" height="181.92" rx="10" transform="translate(8 2)"></rect><g class="e" transform="translate(8)"><rect class="bv" width="332.199" height="184.451" rx="10"></rect><rect class="bw" x="1" y="1" width="330.199" height="182.451" rx="9"></rect></g><path class="d" d="M5.526.09a1.155,1.155,0,0,1-.855-.315,1.131,1.131,0,0,1-.315-.837v-9.72H1.08Q0-10.782,0-11.736t1.08-.954H9.954q1.08,0,1.08.954t-1.08.954H6.678v9.72a1.131,1.131,0,0,1-.315.837A1.131,1.131,0,0,1,5.526.09Zm12.24-2.5a.606.606,0,0,1,.5.234.974.974,0,0,1,.189.63,1.091,1.091,0,0,1-.666.936A6.017,6.017,0,0,1,16.4-.063a5.714,5.714,0,0,1-1.476.207A4.586,4.586,0,0,1,11.556-1.08a4.487,4.487,0,0,1-1.242-3.348,5.137,5.137,0,0,1,.54-2.394,3.927,3.927,0,0,1,1.521-1.62A4.308,4.308,0,0,1,14.6-9.018a3.989,3.989,0,0,1,2.07.522A3.539,3.539,0,0,1,18.036-7.02a4.9,4.9,0,0,1,.486,2.25q0,.774-.684.774h-5.31a2.832,2.832,0,0,0,.7,1.827,2.362,2.362,0,0,0,1.728.585,3.277,3.277,0,0,0,1.017-.144,10.038,10.038,0,0,0,1-.4A1.987,1.987,0,0,1,17.766-2.412ZM14.652-7.434a1.932,1.932,0,0,0-1.467.576A2.72,2.72,0,0,0,12.528-5.2H16.6a2.567,2.567,0,0,0-.54-1.665A1.781,1.781,0,0,0,14.652-7.434ZM23.544.144A5.787,5.787,0,0,1,20.376-.63,1.074,1.074,0,0,1,19.8-1.6a.853.853,0,0,1,.2-.585.623.623,0,0,1,.486-.225,1.988,1.988,0,0,1,.846.288,7.88,7.88,0,0,0,1.053.414,4.289,4.289,0,0,0,1.215.144,2.311,2.311,0,0,0,1.179-.252.781.781,0,0,0,.423-.7.677.677,0,0,0-.171-.486,1.568,1.568,0,0,0-.612-.333,12.869,12.869,0,0,0-1.341-.351,5.152,5.152,0,0,1-2.3-.918,2.043,2.043,0,0,1-.693-1.638,2.363,2.363,0,0,1,.468-1.431,3.033,3.033,0,0,1,1.287-.99,4.689,4.689,0,0,1,1.863-.351,5.584,5.584,0,0,1,1.458.189,4.432,4.432,0,0,1,1.26.549A1.086,1.086,0,0,1,27-7.326a.923.923,0,0,1-.2.6.6.6,0,0,1-.486.243.974.974,0,0,1-.387-.081,5.193,5.193,0,0,1-.477-.243,7.547,7.547,0,0,0-.9-.405,2.807,2.807,0,0,0-.936-.135,1.812,1.812,0,0,0-1.053.27.853.853,0,0,0-.387.738.749.749,0,0,0,.4.684,5.671,5.671,0,0,0,1.53.468,8.73,8.73,0,0,1,1.89.576,2.213,2.213,0,0,1,.981.81,2.35,2.35,0,0,1,.3,1.242A2.308,2.308,0,0,1,26.253-.594,4.515,4.515,0,0,1,23.544.144ZM33.57-1.566q.9.054.9.81a.732.732,0,0,1-.351.657,1.675,1.675,0,0,1-1,.189L32.634.054a2.9,2.9,0,0,1-3.024-3.24V-7.11h-.9a1.143,1.143,0,0,1-.747-.216.771.771,0,0,1-.261-.63.771.771,0,0,1,.261-.63A1.143,1.143,0,0,1,28.71-8.8h.9v-1.656a1.012,1.012,0,0,1,.306-.774,1.159,1.159,0,0,1,.828-.288,1.134,1.134,0,0,1,.81.288,1.012,1.012,0,0,1,.306.774V-8.8h1.53a1.143,1.143,0,0,1,.747.216.771.771,0,0,1,.261.63.771.771,0,0,1-.261.63,1.143,1.143,0,0,1-.747.216H31.86v4.086q0,1.332,1.224,1.422ZM41.832,0a1.127,1.127,0,0,1-.819-.288,1.076,1.076,0,0,1-.3-.81V-11.592a1.076,1.076,0,0,1,.3-.81,1.127,1.127,0,0,1,.819-.288h6.5a1.252,1.252,0,0,1,.81.234.809.809,0,0,1,.288.666.856.856,0,0,1-.288.693,1.22,1.22,0,0,1-.81.243H42.984v3.492H47.97a1.252,1.252,0,0,1,.81.234.83.83,0,0,1,.288.684.809.809,0,0,1-.288.666,1.252,1.252,0,0,1-.81.234H42.984v3.708H48.33a1.22,1.22,0,0,1,.81.243.856.856,0,0,1,.288.693.809.809,0,0,1-.288.666A1.253,1.253,0,0,1,48.33,0Zm16.92-1.656a1.017,1.017,0,0,1,.324.738,1,1,0,0,1-.306.711.972.972,0,0,1-.72.315.988.988,0,0,1-.774-.378L54.738-3.078,52.2-.27a1.044,1.044,0,0,1-.774.36.966.966,0,0,1-.7-.306.966.966,0,0,1-.306-.7,1.017,1.017,0,0,1,.324-.738L53.37-4.518l-2.484-2.7a1.017,1.017,0,0,1-.324-.738.956.956,0,0,1,.306-.711.98.98,0,0,1,.7-.3,1.044,1.044,0,0,1,.774.36l2.394,2.628L57.132-8.6a1.044,1.044,0,0,1,.774-.36.97.97,0,0,1,.711.3.97.97,0,0,1,.3.711,1.017,1.017,0,0,1-.324.738l-2.484,2.7Zm8.73-.756a.606.606,0,0,1,.495.234.974.974,0,0,1,.189.63,1.091,1.091,0,0,1-.666.936,6.017,6.017,0,0,1-1.386.549,5.714,5.714,0,0,1-1.476.207A4.586,4.586,0,0,1,61.272-1.08,4.487,4.487,0,0,1,60.03-4.428a5.137,5.137,0,0,1,.54-2.394,3.927,3.927,0,0,1,1.521-1.62,4.308,4.308,0,0,1,2.223-.576,3.989,3.989,0,0,1,2.07.522A3.539,3.539,0,0,1,67.752-7.02a4.9,4.9,0,0,1,.486,2.25q0,.774-.684.774h-5.31a2.832,2.832,0,0,0,.7,1.827,2.362,2.362,0,0,0,1.728.585,3.277,3.277,0,0,0,1.017-.144,10.039,10.039,0,0,0,1-.4A1.987,1.987,0,0,1,67.482-2.412ZM64.368-7.434a1.932,1.932,0,0,0-1.467.576A2.72,2.72,0,0,0,62.244-5.2h4.068a2.567,2.567,0,0,0-.54-1.665A1.781,1.781,0,0,0,64.368-7.434ZM73.98.144a4.664,4.664,0,0,1-2.313-.558A3.8,3.8,0,0,1,70.128-2a5.068,5.068,0,0,1-.54-2.394,5.027,5.027,0,0,1,.567-2.421,4.006,4.006,0,0,1,1.593-1.629,4.734,4.734,0,0,1,2.358-.576,5.248,5.248,0,0,1,1.413.2,4.661,4.661,0,0,1,1.251.54,1.114,1.114,0,0,1,.576.954,1.012,1.012,0,0,1-.189.639.6.6,0,0,1-.495.243,1.075,1.075,0,0,1-.414-.09,3.625,3.625,0,0,1-.432-.216,4.835,4.835,0,0,0-.756-.369,2.349,2.349,0,0,0-.828-.135,2.1,2.1,0,0,0-1.719.729,3.212,3.212,0,0,0-.6,2.1,3.18,3.18,0,0,0,.6,2.079,2.1,2.1,0,0,0,1.719.729,2.22,2.22,0,0,0,.8-.135,6.785,6.785,0,0,0,.783-.369,3.564,3.564,0,0,1,.468-.243,1.039,1.039,0,0,1,.4-.081.6.6,0,0,1,.486.252.988.988,0,0,1,.2.63,1.013,1.013,0,0,1-.135.531,1.216,1.216,0,0,1-.441.4,4.733,4.733,0,0,1-1.3.567A5.572,5.572,0,0,1,73.98.144ZM85.806-8.982a1.159,1.159,0,0,1,.828.288,1.012,1.012,0,0,1,.306.774V-.936a.976.976,0,0,1-.315.756,1.166,1.166,0,0,1-.819.288,1.086,1.086,0,0,1-.774-.27A.963.963,0,0,1,84.744-.9v-.45A2.867,2.867,0,0,1,83.628-.243a3.226,3.226,0,0,1-1.584.387q-3.24,0-3.24-3.636V-7.92a1.012,1.012,0,0,1,.306-.774,1.134,1.134,0,0,1,.81-.288,1.159,1.159,0,0,1,.828.288,1.012,1.012,0,0,1,.306.774v4.446a2.124,2.124,0,0,0,.378,1.386,1.466,1.466,0,0,0,1.188.45,1.937,1.937,0,0,0,1.5-.621,2.348,2.348,0,0,0,.567-1.647V-7.92A1.012,1.012,0,0,1,85-8.694,1.134,1.134,0,0,1,85.806-8.982Zm8.046,7.416q.9.054.9.81A.732.732,0,0,1,94.4-.1a1.675,1.675,0,0,1-1,.189L92.916.054a2.9,2.9,0,0,1-3.024-3.24V-7.11h-.9a1.143,1.143,0,0,1-.747-.216.771.771,0,0,1-.261-.63.771.771,0,0,1,.261-.63,1.143,1.143,0,0,1,.747-.216h.9v-1.656a1.012,1.012,0,0,1,.306-.774,1.159,1.159,0,0,1,.828-.288,1.134,1.134,0,0,1,.81.288,1.012,1.012,0,0,1,.306.774V-8.8h1.53a1.143,1.143,0,0,1,.747.216.771.771,0,0,1,.261.63.771.771,0,0,1-.261.63,1.143,1.143,0,0,1-.747.216h-1.53v4.086q0,1.332,1.224,1.422ZM97.038.108a1.163,1.163,0,0,1-.8-.279,1.014,1.014,0,0,1-.315-.8V-7.92a.986.986,0,0,1,.315-.792,1.187,1.187,0,0,1,.8-.27,1.222,1.222,0,0,1,.81.27.972.972,0,0,1,.324.792V-.972a1,1,0,0,1-.324.8A1.2,1.2,0,0,1,97.038.108Zm0-10.692a1.375,1.375,0,0,1-.972-.333,1.134,1.134,0,0,1-.36-.873,1.105,1.105,0,0,1,.36-.864,1.4,1.4,0,0,1,.972-.324,1.406,1.406,0,0,1,.963.324,1.093,1.093,0,0,1,.369.864,1.134,1.134,0,0,1-.36.873A1.375,1.375,0,0,1,97.038-10.584ZM104.508.144a4.843,4.843,0,0,1-2.367-.558,3.861,3.861,0,0,1-1.575-1.6,5.079,5.079,0,0,1-.558-2.43,5.026,5.026,0,0,1,.558-2.421,3.874,3.874,0,0,1,1.575-1.593,4.843,4.843,0,0,1,2.367-.558,4.843,4.843,0,0,1,2.367.558,3.818,3.818,0,0,1,1.566,1.593,5.093,5.093,0,0,1,.549,2.421,5.147,5.147,0,0,1-.549,2.43,3.805,3.805,0,0,1-1.566,1.6A4.843,4.843,0,0,1,104.508.144ZM104.49-1.6a2.017,2.017,0,0,0,1.674-.72,3.345,3.345,0,0,0,.576-2.124,3.352,3.352,0,0,0-.576-2.115,1.986,1.986,0,0,0-1.656-.729,2.012,2.012,0,0,0-1.665.729,3.314,3.314,0,0,0-.585,2.115,3.345,3.345,0,0,0,.576,2.124A2,2,0,0,0,104.49-1.6Zm11.466-7.416a2.942,2.942,0,0,1,2.358.9,4.081,4.081,0,0,1,.774,2.718V-.972a1.052,1.052,0,0,1-.3.792,1.127,1.127,0,0,1-.819.288,1.159,1.159,0,0,1-.828-.288,1.035,1.035,0,0,1-.306-.792v-4.3a2.334,2.334,0,0,0-.387-1.494,1.487,1.487,0,0,0-1.215-.468,2.054,2.054,0,0,0-1.557.612,2.272,2.272,0,0,0-.585,1.638V-.972a1.035,1.035,0,0,1-.306.792,1.159,1.159,0,0,1-.828.288,1.127,1.127,0,0,1-.819-.288,1.052,1.052,0,0,1-.3-.792V-7.938a.99.99,0,0,1,.306-.756,1.159,1.159,0,0,1,.828-.288,1.072,1.072,0,0,1,.765.279.954.954,0,0,1,.3.729v.486a3.044,3.044,0,0,1,1.206-1.134A3.629,3.629,0,0,1,115.956-9.018Z" transform="translate(114 34.451)"></path><g transform="translate(28 55.58)"><g transform="translate(147.183)"><path class="ac" d="M-45.03.06a.609.609,0,0,1-.45-.174.609.609,0,0,1-.174-.45V-7.428h-2.4q-.576,0-.576-.516a.484.484,0,0,1,.15-.384.624.624,0,0,1,.426-.132h6.048a.624.624,0,0,1,.426.132.484.484,0,0,1,.15.384q0,.516-.576.516h-2.4V-.564a.621.621,0,0,1-.168.45A.6.6,0,0,1-45.03.06Zm8.136-1.536a.341.341,0,0,1,.276.132.513.513,0,0,1,.108.336.69.69,0,0,1-.432.588,3.807,3.807,0,0,1-.918.372,3.722,3.722,0,0,1-.954.132,2.955,2.955,0,0,1-2.2-.81,3,3,0,0,1-.8-2.214,3.472,3.472,0,0,1,.354-1.6,2.6,2.6,0,0,1,1-1.08A2.785,2.785,0,0,1-39.006-6a2.383,2.383,0,0,1,1.86.756,2.926,2.926,0,0,1,.684,2.04q0,.48-.432.48H-40.6q.12,1.86,1.788,1.86a2.212,2.212,0,0,0,.768-.12,5.585,5.585,0,0,0,.684-.312q.036-.024.2-.1A.655.655,0,0,1-36.894-1.476Zm-2.088-3.636a1.464,1.464,0,0,0-1.116.444,2.074,2.074,0,0,0-.5,1.248h3.1a2.006,2.006,0,0,0-.414-1.254A1.327,1.327,0,0,0-38.982-5.112Zm5.892,5.2a3.631,3.631,0,0,1-2-.5A.912.912,0,0,1-35.4-.7a.6.6,0,0,1-.09-.324.5.5,0,0,1,.108-.324.341.341,0,0,1,.276-.132,1.183,1.183,0,0,1,.492.192,5.048,5.048,0,0,0,.7.312,2.622,2.622,0,0,0,.858.12,1.685,1.685,0,0,0,.9-.2.644.644,0,0,0,.324-.576.562.562,0,0,0-.126-.384,1.068,1.068,0,0,0-.438-.258,7.473,7.473,0,0,0-.924-.246,3.56,3.56,0,0,1-1.518-.618A1.317,1.317,0,0,1-35.3-4.2a1.547,1.547,0,0,1,.3-.93,1.948,1.948,0,0,1,.828-.642A3,3,0,0,1-32.97-6a3.5,3.5,0,0,1,.936.126,2.644,2.644,0,0,1,.8.366.744.744,0,0,1,.4.612.478.478,0,0,1-.114.324.346.346,0,0,1-.27.132.528.528,0,0,1-.216-.048,2.85,2.85,0,0,1-.288-.156,4.031,4.031,0,0,0-.606-.3,1.977,1.977,0,0,0-.7-.108,1.377,1.377,0,0,0-.81.216.683.683,0,0,0-.306.588.591.591,0,0,0,.282.522,3.457,3.457,0,0,0,1.062.354,5.82,5.82,0,0,1,1.26.384,1.493,1.493,0,0,1,.654.534,1.509,1.509,0,0,1,.2.81A1.476,1.476,0,0,1-31.344-.39,2.913,2.913,0,0,1-33.09.084Zm6.552-.948a.6.6,0,0,1,.378.138.43.43,0,0,1,.114.318.415.415,0,0,1-.186.366.869.869,0,0,1-.546.1L-27.1.036a2.1,2.1,0,0,1-1.452-.594,2.205,2.205,0,0,1-.48-1.542V-4.92h-.72q-.528,0-.528-.468a.44.44,0,0,1,.138-.342.558.558,0,0,1,.39-.126h.72V-7.092a.572.572,0,0,1,.162-.432.6.6,0,0,1,.438-.156.626.626,0,0,1,.444.156.56.56,0,0,1,.168.432v1.236h1.188a.558.558,0,0,1,.39.126.44.44,0,0,1,.138.342.436.436,0,0,1-.138.348.576.576,0,0,1-.39.12h-1.188v2.9a1.226,1.226,0,0,0,.234.828,1.013,1.013,0,0,0,.714.3Zm2.124.924a.6.6,0,0,1-.444-.168.616.616,0,0,1-.168-.456v-7.3a.592.592,0,0,1,.162-.438.608.608,0,0,1,.45-.162h2.892a3.041,3.041,0,0,1,2.088.66,2.371,2.371,0,0,1,.744,1.872,2.394,2.394,0,0,1-.744,1.872,3.005,3.005,0,0,1-2.088.672H-23.79v2.82a.629.629,0,0,1-.162.456A.612.612,0,0,1-24.414.06Zm2.76-4.44q1.776,0,1.776-1.548t-1.776-1.536H-23.79V-4.38Zm7.26-1.6q.576-.036.576.492a.538.538,0,0,1-.132.4.712.712,0,0,1-.456.156l-.36.036a1.553,1.553,0,0,0-1.122.528,1.708,1.708,0,0,0-.366,1.1V-.516a.538.538,0,0,1-.168.432.64.64,0,0,1-.432.144.664.664,0,0,1-.438-.144.528.528,0,0,1-.174-.432V-5.4a.532.532,0,0,1,.174-.426.647.647,0,0,1,.438-.15.569.569,0,0,1,.4.15.536.536,0,0,1,.162.414v.576a1.763,1.763,0,0,1,.7-.8,2.339,2.339,0,0,1,1.032-.324ZM-10.65.084a3.017,3.017,0,0,1-1.518-.372A2.51,2.51,0,0,1-13.176-1.35a3.463,3.463,0,0,1-.354-1.6,3.49,3.49,0,0,1,.354-1.614,2.51,2.51,0,0,1,1.008-1.062A3.017,3.017,0,0,1-10.65-6a3.017,3.017,0,0,1,1.518.372A2.51,2.51,0,0,1-8.124-4.566,3.49,3.49,0,0,1-7.77-2.952a3.463,3.463,0,0,1-.354,1.6A2.51,2.51,0,0,1-9.132-.288,3.017,3.017,0,0,1-10.65.084Zm0-.96A1.488,1.488,0,0,0-9.42-1.4a2.42,2.42,0,0,0,.426-1.548,2.4,2.4,0,0,0-.432-1.542,1.485,1.485,0,0,0-1.224-.534,1.485,1.485,0,0,0-1.224.534,2.4,2.4,0,0,0-.432,1.542A2.42,2.42,0,0,0-11.88-1.4,1.488,1.488,0,0,0-10.65-.876Zm3.192,3.06a.927.927,0,0,1-.552-.1A.408.408,0,0,1-8.2,1.716a.4.4,0,0,1,.12-.306A.631.631,0,0,1-7.7,1.272l.336-.024A.959.959,0,0,0-6.66.96,1.247,1.247,0,0,0-6.426.12V-5.388a.547.547,0,0,1,.174-.438.647.647,0,0,1,.438-.15.624.624,0,0,1,.432.15.557.557,0,0,1,.168.438V.048a2.2,2.2,0,0,1-.468,1.524,2.084,2.084,0,0,1-1.452.588Zm1.644-9.336a.773.773,0,0,1-.552-.192.66.66,0,0,1-.2-.5.641.641,0,0,1,.2-.5.788.788,0,0,1,.552-.186.793.793,0,0,1,.546.186.632.632,0,0,1,.21.5.66.66,0,0,1-.2.5A.773.773,0,0,1-5.814-7.152ZM1.062-1.476a.341.341,0,0,1,.276.132.513.513,0,0,1,.108.336.69.69,0,0,1-.432.588A3.807,3.807,0,0,1,.1-.048,3.722,3.722,0,0,1-.858.084a2.955,2.955,0,0,1-2.2-.81,3,3,0,0,1-.8-2.214,3.472,3.472,0,0,1,.354-1.6,2.6,2.6,0,0,1,1-1.08A2.785,2.785,0,0,1-1.05-6a2.383,2.383,0,0,1,1.86.756A2.926,2.926,0,0,1,1.494-3.2q0,.48-.432.48H-2.646q.12,1.86,1.788,1.86A2.212,2.212,0,0,0-.09-.984,5.585,5.585,0,0,0,.594-1.3q.036-.024.2-.1A.655.655,0,0,1,1.062-1.476ZM-1.026-5.112a1.464,1.464,0,0,0-1.116.444,2.074,2.074,0,0,0-.5,1.248H.45A2.006,2.006,0,0,0,.036-4.674,1.327,1.327,0,0,0-1.026-5.112Zm6.36,5.2A2.926,2.926,0,0,1,3.84-.288a2.54,2.54,0,0,1-1-1.056A3.4,3.4,0,0,1,2.49-2.928a3.4,3.4,0,0,1,.366-1.608,2.645,2.645,0,0,1,1.026-1.08A2.951,2.951,0,0,1,5.394-6a3.329,3.329,0,0,1,.918.132,3.138,3.138,0,0,1,.822.36.747.747,0,0,1,.384.612.538.538,0,0,1-.108.342.336.336,0,0,1-.276.138.479.479,0,0,1-.216-.054,3.115,3.115,0,0,1-.276-.162,3.307,3.307,0,0,0-.558-.294,1.68,1.68,0,0,0-.618-.1A1.541,1.541,0,0,0,4.2-4.476,2.367,2.367,0,0,0,3.75-2.94a2.313,2.313,0,0,0,.444,1.518,1.547,1.547,0,0,0,1.26.534A1.737,1.737,0,0,0,6.09-1a3.421,3.421,0,0,0,.564-.288,2.148,2.148,0,0,1,.264-.144.587.587,0,0,1,.24-.06.336.336,0,0,1,.276.138.538.538,0,0,1,.108.342.548.548,0,0,1-.09.306,1.065,1.065,0,0,1-.306.282,2.879,2.879,0,0,1-.84.372A3.65,3.65,0,0,1,5.334.084Zm6.18-.948a.6.6,0,0,1,.378.138.43.43,0,0,1,.114.318.415.415,0,0,1-.186.366.869.869,0,0,1-.546.1L10.95.036A2.1,2.1,0,0,1,9.5-.558,2.205,2.205,0,0,1,9.018-2.1V-4.92H8.3q-.528,0-.528-.468a.44.44,0,0,1,.138-.342.558.558,0,0,1,.39-.126h.72V-7.092a.572.572,0,0,1,.162-.432.6.6,0,0,1,.438-.156.626.626,0,0,1,.444.156.56.56,0,0,1,.168.432v1.236h1.188a.558.558,0,0,1,.39.126.44.44,0,0,1,.138.342.436.436,0,0,1-.138.348.576.576,0,0,1-.39.12H10.23v2.9a1.226,1.226,0,0,0,.234.828,1.013,1.013,0,0,0,.714.3ZM23.658-.72a.653.653,0,0,1,.06.24.483.483,0,0,1-.186.384.629.629,0,0,1-.414.156.529.529,0,0,1-.294-.09.563.563,0,0,1-.21-.258l-.792-1.8H17.43l-.792,1.8a.551.551,0,0,1-.216.258.558.558,0,0,1-.3.09A.644.644,0,0,1,15.7-.1.483.483,0,0,1,15.51-.48a.653.653,0,0,1,.06-.24l3.384-7.4a.633.633,0,0,1,.27-.3.765.765,0,0,1,.39-.108.765.765,0,0,1,.39.108.633.633,0,0,1,.27.3ZM17.874-3.072H21.39L19.626-7.044Zm11.832-2.9a.592.592,0,0,1,.438.162.576.576,0,0,1,.162.426v4.92a2.682,2.682,0,0,1-.714,2.028,2.933,2.933,0,0,1-2.106.684,4.314,4.314,0,0,1-2.16-.492.716.716,0,0,1-.444-.6A.5.5,0,0,1,25,.816a.358.358,0,0,1,.282-.132,1.233,1.233,0,0,1,.492.18,6.057,6.057,0,0,0,.8.318,3.051,3.051,0,0,0,.888.114A1.469,1.469,0,0,0,29.118-.372V-1.3a1.838,1.838,0,0,1-.768.822,2.382,2.382,0,0,1-1.2.294,2.607,2.607,0,0,1-1.368-.36,2.422,2.422,0,0,1-.93-1.02,3.365,3.365,0,0,1-.33-1.524,3.314,3.314,0,0,1,.336-1.524,2.515,2.515,0,0,1,.93-1.026A2.543,2.543,0,0,1,27.15-6a2.363,2.363,0,0,1,1.182.288,1.883,1.883,0,0,1,.774.816v-.5a.556.556,0,0,1,.162-.42A.6.6,0,0,1,29.706-5.976ZM27.438-1.14a1.529,1.529,0,0,0,1.224-.516,2.119,2.119,0,0,0,.444-1.428,2.143,2.143,0,0,0-.438-1.422,1.517,1.517,0,0,0-1.23-.522,1.562,1.562,0,0,0-1.242.516,2.1,2.1,0,0,0-.45,1.428A2.082,2.082,0,0,0,26.2-1.656,1.566,1.566,0,0,0,27.438-1.14Zm9.144-.336a.341.341,0,0,1,.276.132.513.513,0,0,1,.108.336.69.69,0,0,1-.432.588,3.807,3.807,0,0,1-.918.372,3.722,3.722,0,0,1-.954.132,2.955,2.955,0,0,1-2.2-.81,3,3,0,0,1-.8-2.214,3.472,3.472,0,0,1,.354-1.6,2.6,2.6,0,0,1,1-1.08A2.785,2.785,0,0,1,34.47-6a2.383,2.383,0,0,1,1.86.756,2.926,2.926,0,0,1,.684,2.04q0,.48-.432.48H32.874q.12,1.86,1.788,1.86a2.212,2.212,0,0,0,.768-.12,5.585,5.585,0,0,0,.684-.312q.036-.024.2-.1A.655.655,0,0,1,36.582-1.476ZM34.494-5.112a1.464,1.464,0,0,0-1.116.444,2.074,2.074,0,0,0-.5,1.248h3.1a2.006,2.006,0,0,0-.414-1.254A1.327,1.327,0,0,0,34.494-5.112ZM41.5-6q2.1,0,2.1,2.364v3.12a.552.552,0,0,1-.162.426.637.637,0,0,1-.45.15A.6.6,0,0,1,42.552-.1a.556.556,0,0,1-.162-.42v-3.06A1.673,1.673,0,0,0,42.1-4.668a1.136,1.136,0,0,0-.918-.348A1.567,1.567,0,0,0,40-4.56a1.679,1.679,0,0,0-.444,1.224v2.82A.556.556,0,0,1,39.4-.1a.6.6,0,0,1-.438.156A.626.626,0,0,1,38.514-.1a.545.545,0,0,1-.168-.42V-5.4a.541.541,0,0,1,.174-.414.618.618,0,0,1,.438-.162.568.568,0,0,1,.42.156.552.552,0,0,1,.156.408v.492a1.947,1.947,0,0,1,.8-.8A2.429,2.429,0,0,1,41.5-6ZM48.126-.864a.6.6,0,0,1,.378.138.43.43,0,0,1,.114.318.415.415,0,0,1-.186.366.869.869,0,0,1-.546.1L47.562.036A2.1,2.1,0,0,1,46.11-.558,2.205,2.205,0,0,1,45.63-2.1V-4.92h-.72q-.528,0-.528-.468a.44.44,0,0,1,.138-.342.558.558,0,0,1,.39-.126h.72V-7.092a.572.572,0,0,1,.162-.432.6.6,0,0,1,.438-.156.626.626,0,0,1,.444.156.56.56,0,0,1,.168.432v1.236H48.03a.558.558,0,0,1,.39.126.44.44,0,0,1,.138.342.436.436,0,0,1-.138.348.576.576,0,0,1-.39.12H46.842v2.9a1.226,1.226,0,0,0,.234.828,1.013,1.013,0,0,0,.714.3Z" transform="translate(72.618 110.947)"></path><g transform="translate(0 0.052)"><g transform="translate(0 0)"><path class="ad" d="M4.275,0H116.438a4.275,4.275,0,0,1,4.275,4.275v66.06a4.275,4.275,0,0,1-4.275,4.275H4.275A4.275,4.275,0,0,1,0,70.335V4.275A4.275,4.275,0,0,1,4.275,0Z" transform="translate(11.971)"></path><path class="ae" d="M0,0H146.125a0,0,0,0,1,0,0V0a8.918,8.918,0,0,1-8.918,8.918H8.918A8.918,8.918,0,0,1,0,0V0A0,0,0,0,1,0,0Z" transform="translate(0 81.908)"></path></g></g><g class="af" transform="translate(11.971)"><rect class="bv" width="120.713" height="74.611" rx="4"></rect><rect class="bw" x="1" y="1" width="118.713" height="72.611" rx="3"></rect></g></g><g transform="translate(0 0)"><path class="ag" d="M109.841,41.8a19.6,19.6,0,0,0-29.2-23.247,32.727,32.727,0,0,0-61.03,16.216c0,.549.02,1.1.041,1.646a29.249,29.249,0,0,0,9.766,56.879h75.189A26,26,0,0,0,109.841,41.8Z" transform="translate(0 -2.25)"></path><g transform="translate(29.031)"><g transform="translate(0 22.708)"><path class="ah" d="M12.817.472l5.657,2.3a1.89,1.89,0,0,1,1.956,1.817L18.984,49.291c0,1,.571,2.926-.51,2.926l-6.923,2.159c-1.08,0-16.631-.3-16.631-1.3L-.111,1.86C-.111.857,11.736.472,12.817.472Z" transform="translate(5.916 -0.043)"></path><rect class="ai" width="18.166" height="54.499" rx="2"></rect><rect class="aj" width="7.267" height="8.175" rx="1" transform="translate(5.45 6.358)"></rect><rect class="aj" width="7.267" height="8.175" rx="1" transform="translate(5.45 29.974)"></rect><rect class="aj" width="7.267" height="10.9" rx="1" transform="translate(5.45 42.691)"></rect><rect class="ak" width="7.267" height="8.175" rx="1" transform="translate(5.45 18.166)"></rect><g class="al"><rect class="bv" width="18.166" height="54.499" rx="2"></rect><rect class="bw" x="0.5" y="0.5" width="17.166" height="53.499" rx="1.5"></rect></g></g><g transform="translate(49.885 22.708)"><path class="am" d="M8.527,2.214H9.993A1.817,1.817,0,0,1,11.81,4.03L10.467,48.736c0,1,.53,2.926-.473,2.926l-3.206.858c-1,0-6.309,2.8-6.309,1.8L0,.2C0-.8,7.524,2.214,8.527,2.214Z" transform="translate(11.81 54.605) rotate(180)"></path><g transform="translate(10.064)"><rect class="ai" width="18.166" height="54.499" rx="2"></rect></g><rect class="an" width="7.267" height="8.175" rx="1" transform="translate(15.514 6.358)"></rect><rect class="ak" width="7.267" height="8.175" rx="1" transform="translate(15.514 29.974)"></rect><rect class="an" width="7.267" height="8.175" rx="1" transform="translate(15.514 18.166)"></rect><rect class="an" width="7.267" height="10.9" rx="1" transform="translate(15.514 42.691)"></rect><g class="al" transform="translate(10.064)"><rect class="bv" width="18.166" height="54.499" rx="2"></rect><rect class="bw" x="0.5" y="0.5" width="17.166" height="53.499" rx="1.5"></rect></g></g><g transform="translate(24.525 0)"><rect class="ao" width="29.066" height="77.207" rx="2"></rect><rect class="ap" width="8.175" height="8.175" rx="1" transform="translate(3.633 9.083)"></rect><rect class="aj" width="8.175" height="8.175" rx="1" transform="translate(3.633 25.433)"></rect><rect class="aj" width="8.175" height="8.175" rx="1" transform="translate(3.633 39.966)"></rect><path class="aq" d="M1,0H9.9a1,1,0,0,1,1,1V15.441a0,0,0,0,1,0,0H0a0,0,0,0,1,0,0V1A1,1,0,0,1,1,0Z" transform="translate(9.083 60.857)"></path><rect class="aj" width="8.175" height="8.175" rx="1" transform="translate(17.258 9.083)"></rect><rect class="ar" width="8.175" height="8.175" rx="1" transform="translate(17.258 25.433)"></rect><rect class="ak" width="8.175" height="8.175" rx="1" transform="translate(17.258 39.966)"></rect><g class="al"><rect class="bv" width="29.066" height="77.207" rx="2"></rect><rect class="bw" x="0.5" y="0.5" width="28.066" height="76.207" rx="1.5"></rect></g></g></g><path class="ac" d="M-26.9.1A3.977,3.977,0,0,1-28.98-.432a3.517,3.517,0,0,1-1.362-1.5,5.121,5.121,0,0,1-.48-2.292,5.245,5.245,0,0,1,.474-2.31,3.424,3.424,0,0,1,1.362-1.5A4.045,4.045,0,0,1-26.9-8.556a4.07,4.07,0,0,1,2.1.522,3.424,3.424,0,0,1,1.362,1.5,5.215,5.215,0,0,1,.474,2.3,5.215,5.215,0,0,1-.474,2.3A3.461,3.461,0,0,1-24.8-.432,4.033,4.033,0,0,1-26.9.1Zm0-1.008a2.417,2.417,0,0,0,1.98-.864,3.787,3.787,0,0,0,.708-2.46,3.784,3.784,0,0,0-.7-2.454A2.421,2.421,0,0,0-26.9-7.548a2.394,2.394,0,0,0-1.962.858,3.784,3.784,0,0,0-.7,2.454,3.81,3.81,0,0,0,.7,2.46A2.387,2.387,0,0,0-26.9-.912ZM-18.27-6q2.1,0,2.1,2.364v3.12a.552.552,0,0,1-.162.426.637.637,0,0,1-.45.15A.6.6,0,0,1-17.22-.1a.556.556,0,0,1-.162-.42v-3.06a1.673,1.673,0,0,0-.294-1.092,1.136,1.136,0,0,0-.918-.348,1.567,1.567,0,0,0-1.176.456,1.679,1.679,0,0,0-.444,1.224v2.82a.556.556,0,0,1-.162.42.6.6,0,0,1-.438.156A.626.626,0,0,1-21.258-.1a.545.545,0,0,1-.168-.42V-5.4a.541.541,0,0,1,.174-.414.618.618,0,0,1,.438-.162.568.568,0,0,1,.42.156.552.552,0,0,1,.156.408v.492a1.947,1.947,0,0,1,.8-.8A2.429,2.429,0,0,1-18.27-6ZM-10.59.06a.6.6,0,0,1-.444-.168A.616.616,0,0,1-11.2-.564v-7.3A.592.592,0,0,1-11.04-8.3a.608.608,0,0,1,.45-.162H-7.7A3.041,3.041,0,0,1-5.61-7.8a2.371,2.371,0,0,1,.744,1.872A2.394,2.394,0,0,1-5.61-4.056,3.005,3.005,0,0,1-7.7-3.384H-9.966v2.82a.629.629,0,0,1-.162.456A.612.612,0,0,1-10.59.06Zm2.76-4.44q1.776,0,1.776-1.548T-7.83-7.464H-9.966V-4.38Zm7.26-1.6q.576-.036.576.492a.538.538,0,0,1-.132.4.712.712,0,0,1-.456.156l-.36.036a1.553,1.553,0,0,0-1.122.528,1.708,1.708,0,0,0-.366,1.1V-.516A.538.538,0,0,1-2.6-.084.64.64,0,0,1-3.03.06a.664.664,0,0,1-.438-.144.528.528,0,0,1-.174-.432V-5.4a.532.532,0,0,1,.174-.426.647.647,0,0,1,.438-.15.569.569,0,0,1,.4.15.536.536,0,0,1,.162.414v.576a1.763,1.763,0,0,1,.7-.8A2.339,2.339,0,0,1-.738-5.964Zm5.784,4.5a.341.341,0,0,1,.276.132.513.513,0,0,1,.108.336.69.69,0,0,1-.432.588,3.807,3.807,0,0,1-.918.372,3.722,3.722,0,0,1-.954.132,2.955,2.955,0,0,1-2.2-.81,3,3,0,0,1-.8-2.214,3.472,3.472,0,0,1,.354-1.6,2.6,2.6,0,0,1,1-1.08A2.785,2.785,0,0,1,3.1-6a2.383,2.383,0,0,1,1.86.756A2.926,2.926,0,0,1,5.646-3.2q0,.48-.432.48H1.506q.12,1.86,1.788,1.86a2.212,2.212,0,0,0,.768-.12A5.585,5.585,0,0,0,4.746-1.3q.036-.024.2-.1A.655.655,0,0,1,5.214-1.476ZM3.126-5.112a1.464,1.464,0,0,0-1.116.444,2.074,2.074,0,0,0-.5,1.248H4.6a2.006,2.006,0,0,0-.414-1.254A1.327,1.327,0,0,0,3.126-5.112ZM13.7-6q1.968,0,1.968,2.364v3.12A.541.541,0,0,1,15.5-.09a.642.642,0,0,1-.444.15.624.624,0,0,1-.432-.15.541.541,0,0,1-.168-.426V-3.624a1.7,1.7,0,0,0-.264-1.062,1,1,0,0,0-.828-.33,1.3,1.3,0,0,0-1.044.45,1.834,1.834,0,0,0-.384,1.23v2.82a.541.541,0,0,1-.168.426.642.642,0,0,1-.444.15.624.624,0,0,1-.432-.15.541.541,0,0,1-.168-.426V-3.624a1.7,1.7,0,0,0-.264-1.062,1,1,0,0,0-.828-.33,1.319,1.319,0,0,0-1.05.45,1.815,1.815,0,0,0-.39,1.23v2.82a.541.541,0,0,1-.168.426A.624.624,0,0,1,7.59.06a.647.647,0,0,1-.438-.15.532.532,0,0,1-.174-.426V-5.4a.528.528,0,0,1,.18-.42.637.637,0,0,1,.432-.156A.585.585,0,0,1,8-5.826a.536.536,0,0,1,.162.414v.444A1.835,1.835,0,0,1,8.9-5.736,2.16,2.16,0,0,1,9.978-6a2.048,2.048,0,0,1,1.11.276,1.649,1.649,0,0,1,.654.852,2,2,0,0,1,.78-.822A2.261,2.261,0,0,1,13.7-6ZM17.934.06A.664.664,0,0,1,17.5-.084a.528.528,0,0,1-.174-.432V-5.388a.547.547,0,0,1,.174-.438.647.647,0,0,1,.438-.15.624.624,0,0,1,.432.15.557.557,0,0,1,.168.438V-.516a.538.538,0,0,1-.168.432A.64.64,0,0,1,17.934.06Zm0-7.212a.773.773,0,0,1-.552-.192.66.66,0,0,1-.2-.5.641.641,0,0,1,.2-.5.788.788,0,0,1,.552-.186.793.793,0,0,1,.546.186.632.632,0,0,1,.21.5.66.66,0,0,1-.2.5A.773.773,0,0,1,17.934-7.152ZM22.266.084a3.631,3.631,0,0,1-2-.5A.912.912,0,0,1,19.956-.7a.6.6,0,0,1-.09-.324.5.5,0,0,1,.108-.324.341.341,0,0,1,.276-.132,1.183,1.183,0,0,1,.492.192,5.048,5.048,0,0,0,.7.312,2.622,2.622,0,0,0,.858.12,1.685,1.685,0,0,0,.9-.2.644.644,0,0,0,.324-.576.562.562,0,0,0-.126-.384,1.068,1.068,0,0,0-.438-.258,7.473,7.473,0,0,0-.924-.246,3.56,3.56,0,0,1-1.518-.618A1.317,1.317,0,0,1,20.058-4.2a1.547,1.547,0,0,1,.3-.93,1.948,1.948,0,0,1,.828-.642A3,3,0,0,1,22.386-6a3.5,3.5,0,0,1,.936.126,2.644,2.644,0,0,1,.8.366.744.744,0,0,1,.4.612.478.478,0,0,1-.114.324.346.346,0,0,1-.27.132.528.528,0,0,1-.216-.048,2.85,2.85,0,0,1-.288-.156,4.031,4.031,0,0,0-.606-.3,1.977,1.977,0,0,0-.7-.108,1.377,1.377,0,0,0-.81.216.683.683,0,0,0-.306.588.591.591,0,0,0,.282.522,3.457,3.457,0,0,0,1.062.354,5.82,5.82,0,0,1,1.26.384,1.493,1.493,0,0,1,.654.534,1.509,1.509,0,0,1,.2.81A1.476,1.476,0,0,1,24.012-.39,2.913,2.913,0,0,1,22.266.084Zm8.328-1.56a.341.341,0,0,1,.276.132.513.513,0,0,1,.108.336.69.69,0,0,1-.432.588,3.807,3.807,0,0,1-.918.372,3.722,3.722,0,0,1-.954.132,2.955,2.955,0,0,1-2.2-.81,3,3,0,0,1-.8-2.214,3.472,3.472,0,0,1,.354-1.6,2.6,2.6,0,0,1,1-1.08A2.785,2.785,0,0,1,28.482-6a2.383,2.383,0,0,1,1.86.756,2.926,2.926,0,0,1,.684,2.04q0,.48-.432.48H26.886q.12,1.86,1.788,1.86a2.212,2.212,0,0,0,.768-.12,5.585,5.585,0,0,0,.684-.312q.036-.024.2-.1A.655.655,0,0,1,30.594-1.476ZM28.506-5.112a1.464,1.464,0,0,0-1.116.444,2.074,2.074,0,0,0-.5,1.248h3.1a2.006,2.006,0,0,0-.414-1.254A1.327,1.327,0,0,0,28.506-5.112Z" transform="translate(65.115 110.849)"></path></g></g><g transform="translate(224.762 68.43)"><path class="as" d="M0,16.286A1.418,1.418,0,0,1,.419,15.28L11.978,3.711a12.679,12.679,0,0,1,17.926,0l.746.746a12.664,12.664,0,0,1,3.19,12.567,1.425,1.425,0,1,1-2.733-.809,9.827,9.827,0,0,0-2.473-9.743l-.746-.746a9.82,9.82,0,0,0-13.89,0L2.435,17.3A1.426,1.426,0,0,1,0,16.286Z" transform="translate(10.151)"></path><path class="at" d="M0,4.626A12.724,12.724,0,0,1,.526,1.02a1.425,1.425,0,1,1,2.731.81,9.822,9.822,0,0,0,2.475,9.742l.739.746a9.82,9.82,0,0,0,13.89,0L31.929.749a1.426,1.426,0,0,1,2.016,2.016L22.378,14.33a12.679,12.679,0,0,1-17.922,0l-.741-.746A12.684,12.684,0,0,1,0,4.626Z" transform="translate(0 26.467)"></path><path class="au" d="M0,32.474a1.429,1.429,0,0,1,1.829-1.369,9.83,9.83,0,0,0,9.744-2.472l.746-.746a9.762,9.762,0,0,0,2.88-6.944h0A9.759,9.759,0,0,0,12.322,14L.748,2.433A1.425,1.425,0,1,1,2.764.418L14.333,11.985a12.585,12.585,0,0,1,3.711,8.96h0a12.6,12.6,0,0,1-3.713,8.96l-.746.746A12.67,12.67,0,0,1,1.019,33.842,1.424,1.424,0,0,1,0,32.474Z" transform="translate(26.181 9.859)"></path><path class="av" d="M0,13.415a12.637,12.637,0,0,1,3.7-8.96l.746-.741A12.661,12.661,0,0,1,17.011.525,1.426,1.426,0,0,1,16.2,3.259,9.818,9.818,0,0,0,6.459,5.732l-.739.746a9.832,9.832,0,0,0,0,13.89L17.284,31.931a1.425,1.425,0,1,1-2.016,2.013L3.7,22.378A12.639,12.639,0,0,1,0,13.415Z" transform="translate(0.302 0.286)"></path><path class="av" d="M4.739,4.737a2.775,2.775,0,1,1,0-3.923,2.775,2.775,0,0,1,0,3.923Z" transform="translate(14.153 30.518)"></path><path class="au" d="M4.737,4.735a2.774,2.774,0,1,1,0-3.922A2.774,2.774,0,0,1,4.737,4.735Z" transform="translate(24.558 7.966)"></path><path class="at" d="M4.737,4.735a2.774,2.774,0,1,1,0-3.922A2.774,2.774,0,0,1,4.737,4.735Z" transform="translate(30.552 24.97)"></path><path class="as" d="M4.737,4.735a2.774,2.774,0,1,1,0-3.922,2.774,2.774,0,0,1,0,3.922Z" transform="translate(8.772 13.514)"></path></g></g><path class="d" d="M-44.919-12.78a1.1,1.1,0,0,1,.828.315,1.15,1.15,0,0,1,.306.837V-1.062a1.162,1.162,0,0,1-.315.846,1.091,1.091,0,0,1-.819.324,1.085,1.085,0,0,1-.828-.324,1.182,1.182,0,0,1-.306-.846V-5.508h-6.5v4.446a1.162,1.162,0,0,1-.315.846A1.114,1.114,0,0,1-53.7.108a1.091,1.091,0,0,1-.819-.324,1.162,1.162,0,0,1-.315-.846V-11.628a1.15,1.15,0,0,1,.306-.837,1.1,1.1,0,0,1,.828-.315,1.131,1.131,0,0,1,.837.315,1.131,1.131,0,0,1,.315.837V-7.38h6.5v-4.248a1.15,1.15,0,0,1,.306-.837A1.1,1.1,0,0,1-44.919-12.78ZM-36.891.09a1.155,1.155,0,0,1-.855-.315,1.131,1.131,0,0,1-.315-.837v-9.72h-3.276q-1.08,0-1.08-.954t1.08-.954h8.874q1.08,0,1.08.954t-1.08.954h-3.276v9.72a1.131,1.131,0,0,1-.315.837A1.131,1.131,0,0,1-36.891.09Zm18.144-12.87a1.078,1.078,0,0,1,.81.315,1.15,1.15,0,0,1,.306.837V-.972a1.07,1.07,0,0,1-.288.792,1.022,1.022,0,0,1-.756.288.963.963,0,0,1-.738-.288,1.112,1.112,0,0,1-.27-.792V-8.388l-3.06,5.8a1.787,1.787,0,0,1-.468.585.962.962,0,0,1-.594.189A1,1,0,0,1-24.4-2a1.655,1.655,0,0,1-.468-.594L-27.945-8.3V-.972a1.1,1.1,0,0,1-.279.783.976.976,0,0,1-.747.3.963.963,0,0,1-.738-.288,1.112,1.112,0,0,1-.27-.792V-11.628a1.17,1.17,0,0,1,.3-.837,1.048,1.048,0,0,1,.8-.315,1.212,1.212,0,0,1,1.1.774l4,7.614,3.978-7.614A1.191,1.191,0,0,1-18.747-12.78ZM-13.779,0a1.1,1.1,0,0,1-.81-.288,1.07,1.07,0,0,1-.288-.792V-11.628a1.131,1.131,0,0,1,.315-.837,1.131,1.131,0,0,1,.837-.315,1.155,1.155,0,0,1,.855.315,1.131,1.131,0,0,1,.315.837v9.72H-7.5q1.08,0,1.08.954T-7.5,0ZM10.143-1.458a1.138,1.138,0,0,1,.216.63.844.844,0,0,1-.333.684,1.206,1.206,0,0,1-.783.27,1.179,1.179,0,0,1-.549-.135,1.181,1.181,0,0,1-.441-.405L5.859-4.05a2.332,2.332,0,0,0-.765-.81,2.09,2.09,0,0,0-1.053-.234H2.277v4.032a1.175,1.175,0,0,1-.306.855,1.1,1.1,0,0,1-.828.315A1.131,1.131,0,0,1,.306-.207a1.155,1.155,0,0,1-.315-.855v-10.53a1.076,1.076,0,0,1,.3-.81,1.127,1.127,0,0,1,.819-.288h4.5a4.923,4.923,0,0,1,3.285.963,3.459,3.459,0,0,1,1.125,2.781A3.516,3.516,0,0,1,9.18-6.525,3.962,3.962,0,0,1,6.813-5.31a2.269,2.269,0,0,1,.918.45,3.959,3.959,0,0,1,.774.9ZM5.283-6.876a3.048,3.048,0,0,0,1.926-.5,1.84,1.84,0,0,0,.612-1.521,1.809,1.809,0,0,0-.612-1.521,3.134,3.134,0,0,0-1.926-.477H2.259v4.014ZM19.269-2.412a.606.606,0,0,1,.5.234.974.974,0,0,1,.189.63,1.091,1.091,0,0,1-.666.936A6.017,6.017,0,0,1,17.9-.063a5.714,5.714,0,0,1-1.476.207A4.586,4.586,0,0,1,13.059-1.08a4.487,4.487,0,0,1-1.242-3.348,5.137,5.137,0,0,1,.54-2.394,3.927,3.927,0,0,1,1.521-1.62A4.308,4.308,0,0,1,16.1-9.018a3.989,3.989,0,0,1,2.07.522A3.539,3.539,0,0,1,19.539-7.02a4.9,4.9,0,0,1,.486,2.25q0,.774-.684.774h-5.31a2.832,2.832,0,0,0,.7,1.827,2.362,2.362,0,0,0,1.728.585,3.277,3.277,0,0,0,1.017-.144,10.039,10.039,0,0,0,1-.4A1.986,1.986,0,0,1,19.269-2.412ZM16.155-7.434a1.932,1.932,0,0,0-1.467.576A2.72,2.72,0,0,0,14.031-5.2H18.1a2.567,2.567,0,0,0-.54-1.665A1.781,1.781,0,0,0,16.155-7.434ZM26.919-9.018a3.648,3.648,0,0,1,2.025.576A3.819,3.819,0,0,1,30.33-6.813a5.629,5.629,0,0,1,.5,2.421A5.451,5.451,0,0,1,30.33-2,3.749,3.749,0,0,1,28.953-.414a3.723,3.723,0,0,1-2.034.558,3.484,3.484,0,0,1-1.674-.4,2.779,2.779,0,0,1-1.134-1.1V2.322a.934.934,0,0,1-.306.738,1.18,1.18,0,0,1-.81.27,1.166,1.166,0,0,1-.819-.288.976.976,0,0,1-.315-.756V-7.92a1.028,1.028,0,0,1,.3-.774,1.1,1.1,0,0,1,.8-.288,1.134,1.134,0,0,1,.81.288,1.012,1.012,0,0,1,.306.774v.45a2.762,2.762,0,0,1,1.143-1.143A3.511,3.511,0,0,1,26.919-9.018ZM26.325-1.6a2.017,2.017,0,0,0,1.656-.729,3.183,3.183,0,0,0,.594-2.061,3.363,3.363,0,0,0-.594-2.124,1.987,1.987,0,0,0-1.656-.756,2,2,0,0,0-1.665.738,3.321,3.321,0,0,0-.585,2.106A3.288,3.288,0,0,0,24.66-2.34,2,2,0,0,0,26.325-1.6ZM36.693.144a4.843,4.843,0,0,1-2.367-.558,3.861,3.861,0,0,1-1.575-1.6,5.079,5.079,0,0,1-.558-2.43,5.026,5.026,0,0,1,.558-2.421A3.874,3.874,0,0,1,34.326-8.46a4.843,4.843,0,0,1,2.367-.558,4.843,4.843,0,0,1,2.367.558,3.818,3.818,0,0,1,1.566,1.593,5.093,5.093,0,0,1,.549,2.421,5.147,5.147,0,0,1-.549,2.43,3.805,3.805,0,0,1-1.566,1.6A4.843,4.843,0,0,1,36.693.144ZM36.675-1.6a2.017,2.017,0,0,0,1.674-.72,3.345,3.345,0,0,0,.576-2.124,3.352,3.352,0,0,0-.576-2.115,1.986,1.986,0,0,0-1.656-.729,2.012,2.012,0,0,0-1.665.729,3.314,3.314,0,0,0-.585,2.115,3.345,3.345,0,0,0,.576,2.124A2,2,0,0,0,36.675-1.6Zm11.268-7.38a.969.969,0,0,1,.738.2.879.879,0,0,1,.27.7.981.981,0,0,1-.234.72,1.438,1.438,0,0,1-.846.306L47.331-7a2.187,2.187,0,0,0-1.557.72,2.354,2.354,0,0,0-.495,1.53v3.78a1,1,0,0,1-.324.8,1.2,1.2,0,0,1-.81.279,1.163,1.163,0,0,1-.8-.279,1.014,1.014,0,0,1-.315-.8V-7.938a.964.964,0,0,1,.315-.774,1.161,1.161,0,0,1,.783-.27,1.082,1.082,0,0,1,.756.261.957.957,0,0,1,.288.747v.72a2.664,2.664,0,0,1,1.017-1.224,3.118,3.118,0,0,1,1.5-.486Zm7.362,7.416q.9.054.9.81a.732.732,0,0,1-.351.657,1.675,1.675,0,0,1-1,.189L54.369.054a2.9,2.9,0,0,1-3.024-3.24V-7.11h-.9a1.143,1.143,0,0,1-.747-.216.771.771,0,0,1-.261-.63.771.771,0,0,1,.261-.63,1.143,1.143,0,0,1,.747-.216h.9v-1.656a1.012,1.012,0,0,1,.306-.774,1.159,1.159,0,0,1,.828-.288,1.134,1.134,0,0,1,.81.288,1.012,1.012,0,0,1,.306.774V-8.8h1.53a1.143,1.143,0,0,1,.747.216.771.771,0,0,1,.261.63.771.771,0,0,1-.261.63,1.143,1.143,0,0,1-.747.216H53.6v4.086q0,1.332,1.224,1.422Z" transform="translate(1168.553 2847)"></path><path class="d" d="M-39.834.162A6.331,6.331,0,0,1-43.047-.63,5.265,5.265,0,0,1-45.162-2.9,7.637,7.637,0,0,1-45.9-6.354,7.58,7.58,0,0,1-45.162-9.8a5.276,5.276,0,0,1,2.115-2.259,6.331,6.331,0,0,1,3.213-.792A6.959,6.959,0,0,1-37.6-12.5a5.8,5.8,0,0,1,1.854,1.017,1.033,1.033,0,0,1,.324.378,1.172,1.172,0,0,1,.09.486,1.032,1.032,0,0,1-.216.666.649.649,0,0,1-.522.27,1.331,1.331,0,0,1-.738-.252,5.338,5.338,0,0,0-1.44-.8,4.59,4.59,0,0,0-1.476-.225,3.459,3.459,0,0,0-2.835,1.17,5.3,5.3,0,0,0-.963,3.438A5.333,5.333,0,0,0-42.561-2.9a3.459,3.459,0,0,0,2.835,1.17,4.236,4.236,0,0,0,1.431-.234,6.865,6.865,0,0,0,1.485-.792,2.519,2.519,0,0,1,.36-.18,1.008,1.008,0,0,1,.378-.072.649.649,0,0,1,.522.27,1.032,1.032,0,0,1,.216.666,1.187,1.187,0,0,1-.09.477,1.008,1.008,0,0,1-.324.387A5.8,5.8,0,0,1-37.6-.189,6.959,6.959,0,0,1-39.834.162Zm11.25-9.144a.969.969,0,0,1,.738.2.879.879,0,0,1,.27.7.981.981,0,0,1-.234.72,1.438,1.438,0,0,1-.846.306L-29.2-7a2.187,2.187,0,0,0-1.557.72,2.354,2.354,0,0,0-.5,1.53v3.78a1,1,0,0,1-.324.8,1.2,1.2,0,0,1-.81.279,1.163,1.163,0,0,1-.8-.279,1.014,1.014,0,0,1-.315-.8V-7.938a.964.964,0,0,1,.315-.774,1.161,1.161,0,0,1,.783-.27,1.082,1.082,0,0,1,.756.261.957.957,0,0,1,.288.747v.72a2.664,2.664,0,0,1,1.017-1.224,3.118,3.118,0,0,1,1.5-.486Zm8.766,6.57a.606.606,0,0,1,.5.234.974.974,0,0,1,.189.63,1.091,1.091,0,0,1-.666.936,6.017,6.017,0,0,1-1.386.549,5.714,5.714,0,0,1-1.476.207A4.586,4.586,0,0,1-26.028-1.08,4.487,4.487,0,0,1-27.27-4.428a5.137,5.137,0,0,1,.54-2.394,3.927,3.927,0,0,1,1.521-1.62,4.308,4.308,0,0,1,2.223-.576,3.989,3.989,0,0,1,2.07.522A3.539,3.539,0,0,1-19.548-7.02a4.9,4.9,0,0,1,.486,2.25q0,.774-.684.774h-5.31a2.832,2.832,0,0,0,.7,1.827,2.362,2.362,0,0,0,1.728.585,3.277,3.277,0,0,0,1.017-.144,10.039,10.039,0,0,0,1-.4A1.986,1.986,0,0,1-19.818-2.412Zm-3.114-5.022a1.932,1.932,0,0,0-1.467.576A2.72,2.72,0,0,0-25.056-5.2h4.068a2.567,2.567,0,0,0-.54-1.665A1.781,1.781,0,0,0-22.932-7.434Zm9.522-1.584a3.666,3.666,0,0,1,2.727.909,3.805,3.805,0,0,1,.891,2.763V-.954a1.015,1.015,0,0,1-.288.765,1.09,1.09,0,0,1-.792.279A1.053,1.053,0,0,1-11.637-.2a1,1,0,0,1-.3-.756v-.4a2.348,2.348,0,0,1-.963,1.1,2.889,2.889,0,0,1-1.521.4,3.532,3.532,0,0,1-1.6-.36,2.85,2.85,0,0,1-1.134-.99,2.5,2.5,0,0,1-.414-1.4,2.224,2.224,0,0,1,.5-1.53,2.975,2.975,0,0,1,1.611-.81A14.671,14.671,0,0,1-12.384-5.2h.45v-.414A1.843,1.843,0,0,0-12.312-6.9a1.608,1.608,0,0,0-1.224-.4,3.884,3.884,0,0,0-1.062.153q-.54.153-1.278.441a1.8,1.8,0,0,1-.684.234.677.677,0,0,1-.531-.234.889.889,0,0,1-.207-.612.921.921,0,0,1,.153-.531,1.452,1.452,0,0,1,.513-.423,5.867,5.867,0,0,1,1.5-.54A7.755,7.755,0,0,1-13.41-9.018Zm-.558,7.542a1.923,1.923,0,0,0,1.467-.6,2.181,2.181,0,0,0,.567-1.557v-.378h-.324a12.417,12.417,0,0,0-1.872.108,1.817,1.817,0,0,0-.954.378.963.963,0,0,0-.288.738,1.221,1.221,0,0,0,.4.945A1.428,1.428,0,0,0-13.968-1.476Zm11.034-.09q.9.054.9.81A.732.732,0,0,1-2.385-.1a1.675,1.675,0,0,1-1,.189L-3.87.054a2.9,2.9,0,0,1-3.024-3.24V-7.11h-.9a1.143,1.143,0,0,1-.747-.216.771.771,0,0,1-.261-.63.771.771,0,0,1,.261-.63A1.143,1.143,0,0,1-7.794-8.8h.9v-1.656a1.012,1.012,0,0,1,.306-.774,1.159,1.159,0,0,1,.828-.288,1.134,1.134,0,0,1,.81.288,1.012,1.012,0,0,1,.306.774V-8.8h1.53a1.143,1.143,0,0,1,.747.216.771.771,0,0,1,.261.63.771.771,0,0,1-.261.63,1.143,1.143,0,0,1-.747.216h-1.53v4.086q0,1.332,1.224,1.422ZM6.1-2.412a.606.606,0,0,1,.495.234.974.974,0,0,1,.189.63,1.091,1.091,0,0,1-.666.936,6.017,6.017,0,0,1-1.386.549A5.714,5.714,0,0,1,3.258.144,4.586,4.586,0,0,1-.108-1.08,4.487,4.487,0,0,1-1.35-4.428,5.137,5.137,0,0,1-.81-6.822,3.927,3.927,0,0,1,.711-8.442a4.308,4.308,0,0,1,2.223-.576A3.989,3.989,0,0,1,5-8.5,3.539,3.539,0,0,1,6.372-7.02a4.9,4.9,0,0,1,.486,2.25Q6.858-4,6.174-4H.864a2.832,2.832,0,0,0,.7,1.827,2.362,2.362,0,0,0,1.728.585,3.277,3.277,0,0,0,1.017-.144,10.039,10.039,0,0,0,1-.4A1.987,1.987,0,0,1,6.1-2.412ZM2.988-7.434a1.932,1.932,0,0,0-1.467.576A2.72,2.72,0,0,0,.864-5.2H4.932a2.567,2.567,0,0,0-.54-1.665A1.781,1.781,0,0,0,2.988-7.434ZM17.928.09a1.155,1.155,0,0,1-.855-.315,1.131,1.131,0,0,1-.315-.837v-9.72H13.482q-1.08,0-1.08-.954t1.08-.954h8.874q1.08,0,1.08.954t-1.08.954H19.08v9.72a1.131,1.131,0,0,1-.315.837A1.131,1.131,0,0,1,17.928.09Zm12.24-2.5a.606.606,0,0,1,.5.234.974.974,0,0,1,.189.63,1.091,1.091,0,0,1-.666.936A6.017,6.017,0,0,1,28.8-.063a5.714,5.714,0,0,1-1.476.207A4.586,4.586,0,0,1,23.958-1.08a4.487,4.487,0,0,1-1.242-3.348,5.137,5.137,0,0,1,.54-2.394,3.927,3.927,0,0,1,1.521-1.62A4.308,4.308,0,0,1,27-9.018a3.989,3.989,0,0,1,2.07.522A3.539,3.539,0,0,1,30.438-7.02a4.9,4.9,0,0,1,.486,2.25q0,.774-.684.774H24.93a2.832,2.832,0,0,0,.7,1.827,2.362,2.362,0,0,0,1.728.585,3.277,3.277,0,0,0,1.017-.144,10.039,10.039,0,0,0,1-.4A1.986,1.986,0,0,1,30.168-2.412ZM27.054-7.434a1.932,1.932,0,0,0-1.467.576A2.72,2.72,0,0,0,24.93-5.2H29a2.567,2.567,0,0,0-.54-1.665A1.781,1.781,0,0,0,27.054-7.434ZM35.946.144A5.787,5.787,0,0,1,32.778-.63,1.074,1.074,0,0,1,32.2-1.6a.853.853,0,0,1,.2-.585.623.623,0,0,1,.486-.225,1.988,1.988,0,0,1,.846.288,7.879,7.879,0,0,0,1.053.414A4.289,4.289,0,0,0,36-1.566a2.311,2.311,0,0,0,1.179-.252.781.781,0,0,0,.423-.7.677.677,0,0,0-.171-.486,1.568,1.568,0,0,0-.612-.333,12.87,12.87,0,0,0-1.341-.351,5.152,5.152,0,0,1-2.3-.918,2.043,2.043,0,0,1-.693-1.638,2.363,2.363,0,0,1,.468-1.431,3.033,3.033,0,0,1,1.287-.99,4.689,4.689,0,0,1,1.863-.351,5.584,5.584,0,0,1,1.458.189,4.432,4.432,0,0,1,1.26.549,1.086,1.086,0,0,1,.576.954.923.923,0,0,1-.2.6.6.6,0,0,1-.486.243.974.974,0,0,1-.387-.081,5.192,5.192,0,0,1-.477-.243,7.548,7.548,0,0,0-.9-.405,2.807,2.807,0,0,0-.936-.135,1.812,1.812,0,0,0-1.053.27.853.853,0,0,0-.387.738.749.749,0,0,0,.4.684,5.671,5.671,0,0,0,1.53.468,8.73,8.73,0,0,1,1.89.576,2.213,2.213,0,0,1,.981.81,2.35,2.35,0,0,1,.3,1.242A2.308,2.308,0,0,1,38.655-.594,4.515,4.515,0,0,1,35.946.144Zm10.026-1.71q.9.054.9.81a.732.732,0,0,1-.351.657,1.675,1.675,0,0,1-1,.189L45.036.054a2.9,2.9,0,0,1-3.024-3.24V-7.11h-.9a1.143,1.143,0,0,1-.747-.216.771.771,0,0,1-.261-.63.771.771,0,0,1,.261-.63,1.143,1.143,0,0,1,.747-.216h.9v-1.656a1.012,1.012,0,0,1,.306-.774,1.159,1.159,0,0,1,.828-.288,1.134,1.134,0,0,1,.81.288,1.012,1.012,0,0,1,.306.774V-8.8h1.53a1.143,1.143,0,0,1,.747.216.771.771,0,0,1,.261.63.771.771,0,0,1-.261.63,1.143,1.143,0,0,1-.747.216h-1.53v4.086q0,1.332,1.224,1.422Z" transform="translate(1128.553 2644)"></path><path class="b" d="M7.733,14.787v16.3a1.324,1.324,0,0,0,1.324,1.324h6.177a1.324,1.324,0,0,0,1.324-1.324v-16.3h5.08a2.647,2.647,0,0,0,1.872-4.519L14.016.775a2.647,2.647,0,0,0-3.744,0L.781,10.267a2.647,2.647,0,0,0,1.872,4.519Z" transform="translate(1434.37 2626) rotate(90)"></path><path class="b" d="M7.733,14.787v17.3a1.324,1.324,0,0,0,1.324,1.324h6.177a1.324,1.324,0,0,0,1.324-1.324v-17.3h5.08a2.647,2.647,0,0,0,1.872-4.519L14.016.775a2.647,2.647,0,0,0-3.744,0L.781,10.267a2.647,2.647,0,0,0,1.872,4.519Z" transform="translate(1229.993 2626) rotate(90)"></path><path class="b" d="M7.733,14.787v33.3a1.324,1.324,0,0,0,1.324,1.324h6.177a1.324,1.324,0,0,0,1.324-1.324v-33.3h5.08a2.647,2.647,0,0,0,1.872-4.519L14.016.775a2.647,2.647,0,0,0-3.744,0L.781,10.267a2.647,2.647,0,0,0,1.872,4.519Z" transform="translate(1553.987 2802.413) rotate(180)"></path><g transform="translate(1419.321 2611)"><g transform="translate(20.232)"><rect class="c" width="180" height="127" rx="10" transform="translate(0)"></rect><path class="d" d="M7.038.162A6.331,6.331,0,0,1,3.825-.63,5.265,5.265,0,0,1,1.71-2.9,7.637,7.637,0,0,1,.972-6.354,7.58,7.58,0,0,1,1.71-9.8,5.276,5.276,0,0,1,3.825-12.06a6.331,6.331,0,0,1,3.213-.792A6.959,6.959,0,0,1,9.27-12.5a5.8,5.8,0,0,1,1.854,1.017,1.033,1.033,0,0,1,.324.378,1.172,1.172,0,0,1,.09.486,1.032,1.032,0,0,1-.216.666.649.649,0,0,1-.522.27,1.331,1.331,0,0,1-.738-.252,5.338,5.338,0,0,0-1.44-.8,4.59,4.59,0,0,0-1.476-.225,3.459,3.459,0,0,0-2.835,1.17,5.3,5.3,0,0,0-.963,3.438A5.334,5.334,0,0,0,4.311-2.9a3.459,3.459,0,0,0,2.835,1.17,4.236,4.236,0,0,0,1.431-.234,6.865,6.865,0,0,0,1.485-.792,2.519,2.519,0,0,1,.36-.18,1.008,1.008,0,0,1,.378-.072.649.649,0,0,1,.522.27,1.032,1.032,0,0,1,.216.666,1.187,1.187,0,0,1-.09.477,1.008,1.008,0,0,1-.324.387A5.8,5.8,0,0,1,9.27-.189,6.959,6.959,0,0,1,7.038.162ZM14.724.108a1.114,1.114,0,0,1-.837-.324,1.162,1.162,0,0,1-.315-.846V-11.628a1.131,1.131,0,0,1,.315-.837,1.131,1.131,0,0,1,.837-.315,1.155,1.155,0,0,1,.855.315,1.131,1.131,0,0,1,.315.837V-1.062a1.162,1.162,0,0,1-.315.846A1.137,1.137,0,0,1,14.724.108ZM29.16.162A6.269,6.269,0,0,1,25.947-.63,5.3,5.3,0,0,1,23.85-2.9a7.637,7.637,0,0,1-.738-3.456A7.659,7.659,0,0,1,23.841-9.8a5.237,5.237,0,0,1,2.1-2.259,6.318,6.318,0,0,1,3.222-.792,6.269,6.269,0,0,1,3.213.792A5.253,5.253,0,0,1,34.461-9.8a7.659,7.659,0,0,1,.729,3.447A7.637,7.637,0,0,1,34.452-2.9a5.3,5.3,0,0,1-2.1,2.268A6.232,6.232,0,0,1,29.16.162Zm0-1.854A3.321,3.321,0,0,0,31.887-2.9a5.353,5.353,0,0,0,.981-3.456A5.315,5.315,0,0,0,31.887-9.8,3.331,3.331,0,0,0,29.16-11a3.351,3.351,0,0,0-2.745,1.2,5.315,5.315,0,0,0-.981,3.447A5.353,5.353,0,0,0,26.415-2.9,3.34,3.34,0,0,0,29.16-1.692Zm13.086-7.29a.969.969,0,0,1,.738.2.879.879,0,0,1,.27.7.981.981,0,0,1-.234.72,1.438,1.438,0,0,1-.846.306L41.634-7a2.187,2.187,0,0,0-1.557.72,2.354,2.354,0,0,0-.495,1.53v3.78a1,1,0,0,1-.324.8,1.2,1.2,0,0,1-.81.279,1.163,1.163,0,0,1-.8-.279,1.014,1.014,0,0,1-.315-.8V-7.938a.964.964,0,0,1,.315-.774,1.161,1.161,0,0,1,.783-.27,1.082,1.082,0,0,1,.756.261.957.957,0,0,1,.288.747v.72a2.664,2.664,0,0,1,1.017-1.224,3.118,3.118,0,0,1,1.5-.486ZM47.952.144a4.664,4.664,0,0,1-2.313-.558A3.8,3.8,0,0,1,44.1-2a5.068,5.068,0,0,1-.54-2.394,5.027,5.027,0,0,1,.567-2.421A4.006,4.006,0,0,1,45.72-8.442a4.734,4.734,0,0,1,2.358-.576,5.248,5.248,0,0,1,1.413.2,4.661,4.661,0,0,1,1.251.54,1.114,1.114,0,0,1,.576.954,1.012,1.012,0,0,1-.189.639.6.6,0,0,1-.495.243,1.075,1.075,0,0,1-.414-.09,3.625,3.625,0,0,1-.432-.216,4.835,4.835,0,0,0-.756-.369,2.349,2.349,0,0,0-.828-.135,2.1,2.1,0,0,0-1.719.729,3.212,3.212,0,0,0-.6,2.1,3.18,3.18,0,0,0,.6,2.079A2.1,2.1,0,0,0,48.2-1.62a2.22,2.22,0,0,0,.8-.135,6.785,6.785,0,0,0,.783-.369,3.564,3.564,0,0,1,.468-.243,1.039,1.039,0,0,1,.4-.081.6.6,0,0,1,.486.252.988.988,0,0,1,.2.63,1.013,1.013,0,0,1-.135.531,1.216,1.216,0,0,1-.441.4,4.733,4.733,0,0,1-1.3.567A5.572,5.572,0,0,1,47.952.144ZM57.978-9.018q3.1,0,3.1,3.618V-.972a1.052,1.052,0,0,1-.3.792,1.127,1.127,0,0,1-.819.288A1.159,1.159,0,0,1,59.13-.18a1.035,1.035,0,0,1-.306-.792V-5.4A2.083,2.083,0,0,0,58.437-6.8a1.535,1.535,0,0,0-1.215-.441,2.054,2.054,0,0,0-1.557.612,2.272,2.272,0,0,0-.585,1.638V-.972a1.035,1.035,0,0,1-.306.792,1.159,1.159,0,0,1-.828.288,1.127,1.127,0,0,1-.819-.288,1.052,1.052,0,0,1-.3-.792V-11.736a.976.976,0,0,1,.315-.756,1.166,1.166,0,0,1,.819-.288,1.18,1.18,0,0,1,.81.27.934.934,0,0,1,.306.738v4.194a2.947,2.947,0,0,1,1.2-1.071A3.791,3.791,0,0,1,57.978-9.018ZM70.326-2.412a.606.606,0,0,1,.5.234.974.974,0,0,1,.189.63,1.091,1.091,0,0,1-.666.936,6.017,6.017,0,0,1-1.386.549,5.714,5.714,0,0,1-1.476.207A4.586,4.586,0,0,1,64.116-1.08a4.487,4.487,0,0,1-1.242-3.348,5.137,5.137,0,0,1,.54-2.394,3.927,3.927,0,0,1,1.521-1.62,4.308,4.308,0,0,1,2.223-.576,3.989,3.989,0,0,1,2.07.522A3.539,3.539,0,0,1,70.6-7.02a4.9,4.9,0,0,1,.486,2.25Q71.082-4,70.4-4h-5.31a2.832,2.832,0,0,0,.7,1.827,2.362,2.362,0,0,0,1.728.585,3.277,3.277,0,0,0,1.017-.144,10.039,10.039,0,0,0,1-.4A1.987,1.987,0,0,1,70.326-2.412ZM67.212-7.434a1.932,1.932,0,0,0-1.467.576A2.72,2.72,0,0,0,65.088-5.2h4.068a2.567,2.567,0,0,0-.54-1.665A1.781,1.781,0,0,0,67.212-7.434ZM76.1.144A5.787,5.787,0,0,1,72.936-.63,1.074,1.074,0,0,1,72.36-1.6a.853.853,0,0,1,.2-.585.623.623,0,0,1,.486-.225,1.988,1.988,0,0,1,.846.288,7.88,7.88,0,0,0,1.053.414,4.289,4.289,0,0,0,1.215.144,2.311,2.311,0,0,0,1.179-.252.781.781,0,0,0,.423-.7.677.677,0,0,0-.171-.486,1.568,1.568,0,0,0-.612-.333,12.869,12.869,0,0,0-1.341-.351,5.152,5.152,0,0,1-2.295-.918,2.043,2.043,0,0,1-.693-1.638,2.363,2.363,0,0,1,.468-1.431,3.033,3.033,0,0,1,1.287-.99,4.689,4.689,0,0,1,1.863-.351,5.584,5.584,0,0,1,1.458.189,4.432,4.432,0,0,1,1.26.549,1.086,1.086,0,0,1,.576.954.923.923,0,0,1-.2.6.6.6,0,0,1-.486.243.974.974,0,0,1-.387-.081,5.193,5.193,0,0,1-.477-.243,7.548,7.548,0,0,0-.9-.405,2.807,2.807,0,0,0-.936-.135,1.812,1.812,0,0,0-1.053.27.853.853,0,0,0-.387.738.749.749,0,0,0,.4.684,5.671,5.671,0,0,0,1.53.468,8.729,8.729,0,0,1,1.89.576,2.213,2.213,0,0,1,.981.81,2.35,2.35,0,0,1,.3,1.242A2.308,2.308,0,0,1,78.813-.594,4.515,4.515,0,0,1,76.1.144ZM86.13-1.566q.9.054.9.81a.732.732,0,0,1-.351.657,1.675,1.675,0,0,1-1,.189L85.194.054a2.9,2.9,0,0,1-3.024-3.24V-7.11h-.9a1.143,1.143,0,0,1-.747-.216.771.771,0,0,1-.261-.63.771.771,0,0,1,.261-.63A1.143,1.143,0,0,1,81.27-8.8h.9v-1.656a1.012,1.012,0,0,1,.306-.774,1.159,1.159,0,0,1,.828-.288,1.134,1.134,0,0,1,.81.288,1.012,1.012,0,0,1,.306.774V-8.8h1.53a1.143,1.143,0,0,1,.747.216.771.771,0,0,1,.261.63.771.771,0,0,1-.261.63,1.143,1.143,0,0,1-.747.216H84.42v4.086q0,1.332,1.224,1.422Zm6.984-7.416a.969.969,0,0,1,.738.2.879.879,0,0,1,.27.7.981.981,0,0,1-.234.72,1.438,1.438,0,0,1-.846.306L92.5-7a2.187,2.187,0,0,0-1.557.72,2.354,2.354,0,0,0-.5,1.53v3.78a1,1,0,0,1-.324.8,1.2,1.2,0,0,1-.81.279,1.163,1.163,0,0,1-.8-.279,1.014,1.014,0,0,1-.315-.8V-7.938a.964.964,0,0,1,.315-.774,1.161,1.161,0,0,1,.783-.27,1.083,1.083,0,0,1,.756.261.957.957,0,0,1,.288.747v.72a2.664,2.664,0,0,1,1.017-1.224,3.118,3.118,0,0,1,1.5-.486Zm5.76-.036a3.666,3.666,0,0,1,2.727.909,3.805,3.805,0,0,1,.891,2.763V-.954a1.015,1.015,0,0,1-.288.765,1.09,1.09,0,0,1-.792.279,1.053,1.053,0,0,1-.765-.288,1,1,0,0,1-.3-.756v-.4a2.349,2.349,0,0,1-.963,1.1,2.889,2.889,0,0,1-1.521.4,3.532,3.532,0,0,1-1.6-.36,2.85,2.85,0,0,1-1.134-.99,2.5,2.5,0,0,1-.414-1.4,2.224,2.224,0,0,1,.495-1.53,2.975,2.975,0,0,1,1.611-.81A14.671,14.671,0,0,1,99.9-5.2h.45v-.414A1.843,1.843,0,0,0,99.972-6.9a1.608,1.608,0,0,0-1.224-.4,3.884,3.884,0,0,0-1.062.153q-.54.153-1.278.441a1.8,1.8,0,0,1-.684.234.677.677,0,0,1-.531-.234.889.889,0,0,1-.207-.612.921.921,0,0,1,.153-.531,1.452,1.452,0,0,1,.513-.423,5.867,5.867,0,0,1,1.5-.54A7.755,7.755,0,0,1,98.874-9.018Zm-.558,7.542a1.923,1.923,0,0,0,1.467-.6,2.181,2.181,0,0,0,.567-1.557v-.378h-.324a12.417,12.417,0,0,0-1.872.108,1.817,1.817,0,0,0-.954.378.963.963,0,0,0-.288.738,1.221,1.221,0,0,0,.4.945A1.428,1.428,0,0,0,98.316-1.476Zm11.034-.09q.9.054.9.81A.732.732,0,0,1,109.9-.1a1.675,1.675,0,0,1-1,.189l-.486-.036a2.9,2.9,0,0,1-3.024-3.24V-7.11h-.9a1.143,1.143,0,0,1-.747-.216.771.771,0,0,1-.261-.63.771.771,0,0,1,.261-.63,1.143,1.143,0,0,1,.747-.216h.9v-1.656a1.012,1.012,0,0,1,.306-.774,1.159,1.159,0,0,1,.828-.288,1.134,1.134,0,0,1,.81.288,1.012,1.012,0,0,1,.306.774V-8.8h1.53a1.143,1.143,0,0,1,.747.216.771.771,0,0,1,.261.63.771.771,0,0,1-.261.63,1.143,1.143,0,0,1-.747.216h-1.53v4.086q0,1.332,1.224,1.422ZM112.536.108a1.163,1.163,0,0,1-.8-.279,1.014,1.014,0,0,1-.315-.8V-7.92a.986.986,0,0,1,.315-.792,1.187,1.187,0,0,1,.8-.27,1.222,1.222,0,0,1,.81.27.972.972,0,0,1,.324.792V-.972a1,1,0,0,1-.324.8A1.2,1.2,0,0,1,112.536.108Zm0-10.692a1.375,1.375,0,0,1-.972-.333,1.134,1.134,0,0,1-.36-.873,1.105,1.105,0,0,1,.36-.864,1.4,1.4,0,0,1,.972-.324,1.406,1.406,0,0,1,.963.324,1.093,1.093,0,0,1,.369.864,1.134,1.134,0,0,1-.36.873A1.375,1.375,0,0,1,112.536-10.584ZM120.006.144a4.843,4.843,0,0,1-2.367-.558,3.861,3.861,0,0,1-1.575-1.6,5.079,5.079,0,0,1-.558-2.43,5.026,5.026,0,0,1,.558-2.421,3.874,3.874,0,0,1,1.575-1.593,4.843,4.843,0,0,1,2.367-.558,4.843,4.843,0,0,1,2.367.558,3.818,3.818,0,0,1,1.566,1.593,5.093,5.093,0,0,1,.549,2.421,5.147,5.147,0,0,1-.549,2.43,3.805,3.805,0,0,1-1.566,1.6A4.843,4.843,0,0,1,120.006.144ZM119.988-1.6a2.017,2.017,0,0,0,1.674-.72,3.345,3.345,0,0,0,.576-2.124,3.352,3.352,0,0,0-.576-2.115,1.986,1.986,0,0,0-1.656-.729,2.012,2.012,0,0,0-1.665.729,3.314,3.314,0,0,0-.585,2.115,3.345,3.345,0,0,0,.576,2.124A2,2,0,0,0,119.988-1.6Zm11.466-7.416a2.942,2.942,0,0,1,2.358.9,4.081,4.081,0,0,1,.774,2.718V-.972a1.052,1.052,0,0,1-.3.792,1.127,1.127,0,0,1-.819.288,1.159,1.159,0,0,1-.828-.288,1.035,1.035,0,0,1-.306-.792v-4.3a2.334,2.334,0,0,0-.387-1.494,1.487,1.487,0,0,0-1.215-.468,2.054,2.054,0,0,0-1.557.612,2.272,2.272,0,0,0-.585,1.638V-.972a1.035,1.035,0,0,1-.306.792,1.159,1.159,0,0,1-.828.288,1.127,1.127,0,0,1-.819-.288,1.052,1.052,0,0,1-.3-.792V-7.938a.99.99,0,0,1,.306-.756,1.159,1.159,0,0,1,.828-.288,1.072,1.072,0,0,1,.765.279.954.954,0,0,1,.3.729v.486a3.044,3.044,0,0,1,1.206-1.134A3.629,3.629,0,0,1,131.454-9.018Z" transform="translate(22 33)"></path></g><g class="e" transform="translate(20.232)"><rect class="bv" width="180" height="127" rx="10"></rect><rect class="bw" x="1" y="1" width="178" height="125" rx="9"></rect></g><g transform="translate(115.756 67.5)"><rect class="f" width="48" height="48" rx="5"></rect><rect class="i" width="48" height="48" rx="5" transform="translate(0 3)"></rect><path class="aw" d="M11.791,16.068a3.818,3.818,0,1,1,3.818,3.818A3.82,3.82,0,0,1,11.791,16.068ZM15.61,0A16.062,16.062,0,0,0,.031,12.1c0,.061-.031.092-.031.153a.756.756,0,0,0,.764.764H7.24a.772.772,0,0,0,.7-.458h0a8.431,8.431,0,1,1,0,7.026h0a.772.772,0,0,0-.7-.458H.764A.756.756,0,0,0,0,19.886a.275.275,0,0,0,.031.153A16.085,16.085,0,1,0,15.61,0Z" transform="translate(8.522 10.966)"></path></g><g transform="translate(0 65.215)"><rect class="f" width="47" height="49.309" rx="5" transform="matrix(0.995, -0.105, 0.105, 0.995, 2.811, 4.913)"></rect><rect class="g" width="48" height="48" rx="5" transform="matrix(0.995, -0.105, 0.105, 0.995, 0, 7.835)"></rect><g transform="translate(12.601 11.518)"><g transform="translate(0 0.145)"><path class="ax" d="M29.4,51.841a13.15,13.15,0,0,1-13,13.3,13.3,13.3,0,0,1,0-26.593,13.15,13.15,0,0,1,13,13.3" transform="translate(-2.994 -33.98)"></path><path class="ay" d="M2.714,61.376S1.773,47.51,14.55,47.114l-.891-1.486L6.726,47.955,4.745,50.233,3.012,53.551l-.991,3.863.3,2.575" transform="translate(-1.781 -40.222)"></path><path class="az" d="M4.5,40.145a13,13,0,0,0-3.692,9.12h0A13,13,0,0,0,4.5,58.385h0a12.409,12.409,0,0,0,8.9,3.773h0a12.408,12.408,0,0,0,8.9-3.773h0A13,13,0,0,0,26,49.265h0a13.006,13.006,0,0,0-3.692-9.12h0a12.412,12.412,0,0,0-8.9-3.773h0a12.413,12.413,0,0,0-8.9,3.773Zm-.577,18.8A13.813,13.813,0,0,1,0,49.265H0a13.813,13.813,0,0,1,3.922-9.684h0A13.218,13.218,0,0,1,13.4,35.565h0a13.218,13.218,0,0,1,9.481,4.016h0a13.812,13.812,0,0,1,3.923,9.684h0a13.811,13.811,0,0,1-3.923,9.684h0A13.22,13.22,0,0,1,13.4,62.965h0a13.22,13.22,0,0,1-9.481-4.016h0" transform="translate(0 -31.355)"></path><path class="ba" d="M55.277,22.172l-1.981.3-2.674.3-1.733.049-1.684-.049-1.288-.4-1.139-1.238-.891-2.526-.2-.545-1.189-.4-.693-1.139-.5-1.634.545-1.436,1.288-.446,1.04.5.5,1.089.594-.1.2-.247-.2-1.139-.05-1.436.3-1.981L45.51,8.561l.9-1.444L48,5.979,50.771,4.79l3.07.446,2.674,1.931,1.238,1.981.792,1.436.2,3.566-.594,3.07-1.09,2.724L56.02,21.38" transform="translate(-36.402 -4.238)"></path><path class="bb" d="M41.111,154.467l-7.082.3v1.189l.594,4.16-.3.347-4.952-1.684-.347-.594-.5-5.6-1.139-3.368-.248-.792,3.962-2.724,1.238-.5,1.089,1.337.941.842,1.09.347.5.149.594,2.575L37,151l1.139-.4-.792,1.535,4.308,2.03-.545.3" transform="translate(-23.92 -127.965)"></path><path class="bc" d="M44.427,16.76l1.288-.446,1.04.5.5,1.089.594-.1.149-.594-.3-1.139.3-2.724-.248-1.486.891-1.04,1.931-1.535-.545-.743L47.3,9.877l-1.139.891-.644,1.387-.99,1.337-.3,1.585.2,1.684" transform="translate(-38.972 -7.542)"></path><path class="bd" d="M54.535,13.34s.743-1.832,3.714-2.724.149-.644.149-.644L55.179,11.21l-1.238,1.238-.545.991,1.139-.1" transform="translate(-47.05 -8.776)"></path><path class="bd" d="M44.971,41.012s-1.04-3.467,2.922-3.962l-.149-.594-2.724.644-.792,2.575.2,1.684.545-.347" transform="translate(-38.971 -32.14)"></path><path class="be" d="M63.812,108.882l.648-.628a.417.417,0,0,1,.342.381c.049.347.2,3.467,2.327,5.15.194.154-1.585-.248-1.585-.248l-1.585-2.476" transform="translate(-56.228 -95.405)"></path><path class="be" d="M140.463,95.3s.116-1.5.52-1.386a.556.556,0,0,1,.4.52s-.982.635-.924.866" transform="translate(-123.766 -82.767)"></path><path class="bf" d="M168.423,59.374s-.816.172-.891.891.891.149,1.04.1" transform="translate(-147.617 -52.335)"></path><path class="bf" d="M116.568,59.791s-1.09.149-1.09.842,1.238.644,1.585.347" transform="translate(-101.753 -52.702)"></path><path class="be" d="M44.115,76.226s-1.882-1.139-2.08-.049-.644,1.882.3,3.021l-.644-.2-.594-1.535-.2-1.486,1.139-1.189,1.288.1.743.594.049.743" transform="translate(-36.035 -65.918)"></path><path class="be" d="M75.105,8.349s.842-4.358,5.1-5.2c3.506-.693,5.348.149,6.042.941,0,0-3.12-3.714-6.091-2.575s-5.15,3.219-5.1,4.556a21.767,21.767,0,0,1,.049,2.278" transform="translate(-66.135 -1.161)"></path><path class="be" d="M161.132,28.954s-1.436-.049-1.486,1.238a.984.984,0,0,0,.1.4s1.139-1.288,1.832-.594" transform="translate(-140.672 -25.53)"></path><path class="be" d="M98.111,35.039s-.247-1.976-1.932-.827c-1.09.743-.99,1.783-.792,1.981s.144.6.295.323.1-1.165.646-1.413,1.438-.524,1.784-.064" transform="translate(-83.939 -29.847)"></path><path class="bg" d="M33.435,146.177l-4.655,2.08s1.931,7.676.941,10.053l-.693-.247-.049-2.922-1.287-5.546-.545-1.535L32,144.791l1.436,1.386" transform="translate(-23.92 -127.6)"></path><path class="bg" d="M82.377,192.178l.66.806v2.971h-.793s-.1-2.08-.1-2.328.1-1.139.1-1.139" transform="translate(-72.383 -169.355)"></path><path class="bg" d="M67.706,227.708l-2.228.1.644.446,1.585.248" transform="translate(-57.696 -200.662)"></path><path class="bb" d="M148.4,223.173l1.832-.049.446,4.556-1.882.247-.4-4.754" transform="translate(-130.759 -196.623)"></path><path class="bb" d="M152.563,149.01l2.773-.149s1.139-2.872,1.139-3.021.991-4.16.991-4.16l-2.228-2.327-.446-.4-1.188,1.189v4.605l-1.04,4.259" transform="translate(-134.431 -122.459)"></path><path class="bg" d="M150.129,220.624l-1.733.347.248,1.387c.644.3,1.733-.5,1.733-.5" transform="translate(-130.759 -194.42)"></path><path class="bg" d="M163.4,140l3.466,2.575.1-1.189-2.625-2.427L163.4,140" transform="translate(-143.976 -122.459)"></path><path class="bh" d="M86.681,233.3l-1.025-4.16-.51-3.07-.084-2.279,4.64-.247h2.887l-.262,5.2.446,4.011-.05.743-3.763.3-2.278-.5" transform="translate(-74.952 -196.989)"></path><path class="bd" d="M119.481,220.92a43.8,43.8,0,0,0,.5,8.815,9.459,9.459,0,0,1-3.665,1.189l4.16-.149.5-.3-.594-8.121-.149-1.733" transform="translate(-102.488 -194.419)"></path><path class="bh" d="M164.343,217.375l1.931-.545,3.665-.2.545-1.684-.991-2.922-1.139-.149-1.585.5-1.52.742-.807-.148-.629.247" transform="translate(-144.344 -186.713)"></path><path class="bd" d="M167.979,223.723a7.254,7.254,0,0,1,1.486-.545l-.545-2.724.644-.248s.446,2.575.446,2.872c0,0,2.773.149,3.021.149a4.5,4.5,0,0,0,.446-2.327l.545,1.585.049.891-.792,1.189-.891.2-1.486-.05-.5-.644-1.733.248-.545.2" transform="translate(-148.014 -194.052)"></path><path class="ak" d="M135.083,182.395l-1.089-2.773-1.139-1.634s.247-.693.594-.693h1.139l1.089.4-.1,1.832-.5,2.872" transform="translate(-117.065 -156.24)"></path><path class="bd" d="M134.672,180.715a23.081,23.081,0,0,1-1.387-3.07s.247-.594.594-.446,1.09.545,1.09.545V176.8l-1.684-.347-1.139.149,1.931,4.556.4.05" transform="translate(-116.44 -155.501)"></path><path class="ak" d="M82.722,153.251,81.35,153.1l-1.288-.4v.446l.629.694,1.981.891" transform="translate(-70.547 -134.574)"></path><path class="bd" d="M82.712,158.544a5.474,5.474,0,0,0,2.03.5l.049.594-1.386-.3-.842-.594.149-.2" transform="translate(-72.75 -139.718)"></path><path class="ax" d="M149.957,158.367a9.416,9.416,0,0,1-2.264-.312,6.985,6.985,0,0,1,.029-.736,1.768,1.768,0,0,1,.776-.163,1.35,1.35,0,0,0-.862-.1,1.379,1.379,0,0,0-.143-.454c.472-.169,1.588-1.274,2.215-.908.3.174.426,1.169.449,1.652a1.687,1.687,0,0,1-.2,1.018" transform="translate(-129.963 -137.144)"></path><path class="bi" d="M149.957,158.367a9.416,9.416,0,0,1-2.264-.312,6.985,6.985,0,0,1,.029-.736,1.768,1.768,0,0,1,.776-.163,1.35,1.35,0,0,0-.862-.1,1.379,1.379,0,0,0-.143-.454c.472-.169,1.588-1.274,2.215-.908.3.174.426,1.169.449,1.652A1.687,1.687,0,0,1,149.957,158.367Z" transform="translate(-129.963 -137.144)"></path><path class="ax" d="M107.2,158.606c0,.064,0,.128-.007.192-.262.172-.686.17-.974.315a2.529,2.529,0,0,1,1.048.265q-.01.24-.019.48a17.089,17.089,0,0,1-1.486,1.128,3.936,3.936,0,0,1-1.492.455c-.161-.037-.176-.237-.24-.426a6.1,6.1,0,0,1-.481-1.654c-.035-.768-.113-2.054.715-1.9a7.388,7.388,0,0,1,1.96.717,2.022,2.022,0,0,0,.977.423" transform="translate(-91.225 -138.757)"></path><path class="bi" d="M107.2,158.606c0,.064,0,.128-.007.192-.262.172-.686.17-.974.315a2.529,2.529,0,0,1,1.048.265q-.01.24-.019.48a17.089,17.089,0,0,1-1.486,1.128,3.936,3.936,0,0,1-1.492.455c-.161-.037-.176-.237-.24-.426a6.1,6.1,0,0,1-.481-1.654c-.035-.768-.113-2.054.715-1.9a7.388,7.388,0,0,1,1.96.717A2.022,2.022,0,0,0,107.2,158.606Z" transform="translate(-91.225 -138.757)"></path><path class="ax" d="M137.454,166.943a2.838,2.838,0,0,1-.125-.9c1.115-.743,1.324,1.277.125.9" transform="translate(-121 -146.178)"></path><path class="bi" d="M137.454,166.943a2.838,2.838,0,0,1-.125-.9C138.443,165.3,138.653,167.318,137.454,166.943Z" transform="translate(-121 -146.178)"></path><path class="bj" d="M146.88,155.682s-.347-.5-.1-.644.5,0,.644-.248,0-.4.049-.693.3-.347.545-.4.941-.149,1.04.1l-.3-.891-.594-.2-1.882,1.09-.1.545v1.09" transform="translate(-128.812 -134.578)"></path><path class="bj" d="M101.325,159.525q-.089-1.159-.193-2.317c-.1-1.153.277-.952,1.276-.952a2.633,2.633,0,0,1,1,.3c.27.552-.452.429.311.845.644.351,1.781-.213,1.521-.994-.146-.174-.759-.054-.978-.168l-1.161-.6c-.492-.255-1.63-.628-2.155-.271-1.33.9.084,3.164.558,4.107" transform="translate(-88.456 -136.787)"></path><path class="bk" d="M99.477,37.892c-1.35-.314-2.02.565-2.43,1.477-.365-.089-.22-.585-.128-.838A2.292,2.292,0,0,1,98.931,37.1c.342.051.806.365.546.791" transform="translate(-85.306 -32.699)"></path><path class="bk" d="M167.836,56.767l.064,0a13.984,13.984,0,0,0,.954,1.864c-.258.6-1.952,1.132-1.926.054.366-.16,1-.033,1.324-.237a3.675,3.675,0,0,1-.416-1.683" transform="translate(-147.088 -50.037)"></path><path class="bk" d="M116.908,56.906a5.662,5.662,0,0,0,.795,1.489c.185.181.546.4.367.9a1.144,1.144,0,0,1-.523.434c-.643.19-2.142.039-1.634-.763.532.025,1.247.345,1.644-.041-.305-.488-.85-1.454-.649-2.022" transform="translate(-102.046 -50.16)"></path><path class="bk" d="M143.143,66.177a5.362,5.362,0,0,1-3.635,1.142,1.076,1.076,0,0,1-.139-1.384c.172.295.064.837.541.918.9.154,1.948-.551,2.6-.8.4-.677-.035-.926-.4-1.362-.741-.893-1.734-2-1.7-3.336.3-.217.325.331.368.431a12.211,12.211,0,0,0,2.07,2.837c.174.191.462.374.494.5.092.367-.24.806-.2,1.05" transform="translate(-122.637 -54.039)"></path><path class="bk" d="M51.126,84.067c-.3-.173-.376-.936-.732-.958-.509-.031-.416.99-.414,1.587a1.864,1.864,0,0,1-.155-1.8c-.293-.144-.425.159-.587.266.209-1.52,2.223-.7,1.888.907" transform="translate(-43.386 -72.584)"></path><path class="bk" d="M159.641,107.6a2.788,2.788,0,0,1-2.411,1.83,3.266,3.266,0,0,1,0-.866,6.948,6.948,0,0,0,2.41-.965" transform="translate(-138.518 -94.828)"></path><path class="bk" d="M124.408,112.279a8.372,8.372,0,0,0,3.541.458,4.02,4.02,0,0,1,.062.868c-1.474.074-3.217-.291-3.6-1.326" transform="translate(-109.622 -98.952)"></path><path class="bk" d="M120.4,119.239c.583,1.465,2.588,1.3,4.279,1.256a.9.9,0,0,1-.436.5,4.291,4.291,0,0,1-2.788-.012,3.816,3.816,0,0,1-1.045-1.162c-.126-.162-.755-.577-.01-.578" transform="translate(-105.778 -105.084)"></path><path class="bl" d="M155.992,182.287a29.86,29.86,0,0,1-2.152,3.411,16.432,16.432,0,0,0,.538-3.954,1.246,1.246,0,0,1,1.614.543" transform="translate(-135.556 -160.053)"></path><path class="bk" d="M187.722,222.674c-.766.153-1.3.9-2.053.85a2.448,2.448,0,0,1,2.053-.85" transform="translate(-163.602 -196.226)"></path><path class="bk" d="M191.016,231.4a11.237,11.237,0,0,1-1.992.115c.3-.458,1.456-.3,1.992-.115" transform="translate(-166.558 -203.755)"></path><path class="bk" d="M190.983,239.392c-.7.015-1.575,0-2.242-.055.395-.424,1.787-.157,2.242.055" transform="translate(-166.309 -210.711)"></path><path class="bd" d="M154.569,265.208a16.506,16.506,0,0,1,.406,2.741,2.87,2.87,0,0,1-1.131.245c-.037-.821-.146-2.075-.114-2.858.256.017.633-.183.839-.128" transform="translate(-135.454 -233.696)"></path><path class="ba" d="M131.263,155.939c-.353.23-.653.517-.991.763a2.183,2.183,0,0,1-1.712-.483c.009-.035.064-.019.067-.062.8.358,1.825-.146,2.637-.218" transform="translate(-113.28 -137.423)"></path><path class="bl" d="M115.806,187.36c.221-.957,1.086-1.452,1.872-1.979a15.808,15.808,0,0,1,1.847,3.63,18.93,18.93,0,0,1-3.719-1.651" transform="translate(-102.042 -163.365)"></path><path class="bk" d="M38.96,31.784c-.033.782.077,2.037.114,2.858a2.871,2.871,0,0,0,1.131-.245,16.506,16.506,0,0,0-.406-2.741C39.593,31.6,39.216,31.8,38.96,31.784Zm-8.1-4.449a40.9,40.9,0,0,0,1.751,8.6,11.393,11.393,0,0,0,6.247.114c-.328-1.576-.185-3.494-.377-5.176-.145-1.264-.071-2.536-.269-3.825A21.416,21.416,0,0,0,30.861,27.335Zm7.865-.272c-.018,1.354.061,2.69.164,4.046.52-.078.873-.13,1.356-.236a29.142,29.142,0,0,0-.457-3.929A3.221,3.221,0,0,0,38.726,27.062Zm2.638-.218a3.243,3.243,0,0,0-.77,0c.111,1.1.38,2.322.474,3.481a3.224,3.224,0,0,0,.874-.222,7.005,7.005,0,0,0-.579-3.261Zm3.994,3.649A1.716,1.716,0,0,0,46.4,28.386a9.965,9.965,0,0,0-.68-2.3c-.2-.309-.759-.714-1.2-.431-.72.461-1.988.595-2.513,1.153A18.606,18.606,0,0,1,42.46,30c.9.056,2.006-.248,2.754.075a10.457,10.457,0,0,0-1.651.417,3.445,3.445,0,0,0,1.795.005Zm-7.191-4.7a15.809,15.809,0,0,0-1.847-3.63c-.786.527-1.651,1.023-1.872,1.979A18.93,18.93,0,0,0,38.167,25.791Zm1.339-3.955a16.434,16.434,0,0,1-.538,3.954,29.859,29.859,0,0,0,2.152-3.411A1.246,1.246,0,0,0,39.506,21.835ZM37.988,21.3c-.308-.033-.569.354-.969.186-.092.1-.175.211-.268.31a23.414,23.414,0,0,1,1.968,3.827,16.8,16.8,0,0,0,.4-3.831C38.62,21.82,38.341,21.333,37.988,21.3Zm-.976-1.288a2.83,2.83,0,0,0,.125.9C38.336,21.285,38.127,19.264,37.012,20.008Zm-1.33-.437a7.387,7.387,0,0,0-1.96-.717c-.827-.158-.75,1.128-.715,1.9a6.1,6.1,0,0,0,.481,1.654c.064.189.079.389.24.426a3.936,3.936,0,0,0,1.492-.455,17.09,17.09,0,0,0,1.486-1.128q.009-.24.019-.48a2.529,2.529,0,0,0-1.048-.265c.288-.145.711-.143.974-.315,0-.064.005-.128.007-.192A2.022,2.022,0,0,1,35.683,19.571Zm-4.934-.9c-.429.435,1.2,1.029,1.722,1.061,0-.275.157-.535.125-.733A5.483,5.483,0,0,1,30.748,18.675Zm5.282.2c0,.043-.058.027-.067.062a2.183,2.183,0,0,0,1.712.483c.339-.246.639-.533.991-.763C37.855,18.734,36.834,19.238,36.03,18.879Zm4.848,1.47c-.023-.484-.15-1.478-.449-1.652-.627-.366-1.743.739-2.215.908a1.38,1.38,0,0,1,.143.454,1.35,1.35,0,0,1,.862.1,1.769,1.769,0,0,0-.776.163,6.987,6.987,0,0,0-.029.736,9.415,9.415,0,0,0,2.264.312A1.687,1.687,0,0,0,40.878,20.349ZM30.026,19.1c-.135-.1-1.045-1.281-1.17-1.232A19.6,19.6,0,0,0,24.29,20.7a24.88,24.88,0,0,1,1.937,9.6c1.5.7,2.825,1.718,4.866,1.824-.236-1.671-.452-3.162-.586-4.735-.513-.216-1.249.01-1.728-.067,0-.578.733-.253.794-.642.046-.294-.406-.316-.258-.78.375.136.572.438.972.551.366-.8-.005-2.215.048-2.884.01-.126.063-.7.344-.6.249.088-.014,1.516.013,2.148a3.321,3.321,0,0,0,.166,1.513,56.361,56.361,0,0,1,6.11-.5,14.753,14.753,0,0,1-1.639-.737c-.331-.187-1.376-.576-1.472-.891-.153-.5.4-.769.5-1.2-1,.543-1.19-.52-1.425-1.274a9.913,9.913,0,0,1-.387-1.586A17.165,17.165,0,0,1,30.026,19.1Zm9.98-1.089c1.373-.666,1.621,2.489,1.083,3.5.083.3.369.419.486.692-.766,1.373-1.617,2.654-2.4,4.011.582-.362,1.412-.065,2.1-.336.25-.1.431-.672.621-1.13A24.576,24.576,0,0,0,43.205,20.7a5.137,5.137,0,0,0,.171-1.115c-.06-.437-.652-.761-.954-1.031-.555-.5-.905-.938-1.484-1.4-.235.347-.739.58-.931.862ZM26.886,5.83c-.654.72-.517,2.069-.438,3.029a1.758,1.758,0,0,1,2.738,1.324c.565-.015.211-.705.109-1.15-.334-1.452.562-3.03.041-4.358A3.589,3.589,0,0,0,26.886,5.83Zm4.682-4.178c-1.481.42-3.38,1.5-3.988,2.827.471-.069.8-.306,1.264-.336a3.1,3.1,0,0,0,.608.023c.4-.1.742-1,1.046-1.338s.652-.468.9-.767c.156-.075.388-.07.4-.305C31.72,1.684,31.649,1.628,31.568,1.652Zm7.711.395c-1.537-.867-4.14-1.52-5.775-.7-1.32.658-3.1,1.747-3.712,3.126.568,1.331-.168,2.551-.215,3.9-.025.719.339,1.347.367,2.13-.194.321-.788.36-1.2.338-.138-.693-.381-1.471-1.094-1.549a1.655,1.655,0,0,0-1.793,1.6c-.054,1.026.788,2.728,1.983,2.61.461-.046.575-.508,1.077-.5.272.544-.42.714-.492,1.1a3.124,3.124,0,0,0,.1.677A9.24,9.24,0,0,0,29.7,17.512c.6.865,1.791,1,3.068,1.081.228-.491,1.068-.451,1.616-.322a5.411,5.411,0,0,1-1.771-1.447,3.636,3.636,0,0,1-1.2-2.162c1.1,1.522,2,2.852,4,3.521a5.319,5.319,0,0,0,4.433-1.047,5.092,5.092,0,0,0,1.111-1.368,11.593,11.593,0,0,0,1.746-7.017,7.787,7.787,0,0,0-.4-2.8c-.368-.739-1.615-1.4-2.344-.732-.135-.719.607-1.163,1.478-.9a8.244,8.244,0,0,0-2.156-2.264Zm2.864,23.706c1.2-.6,3.446-1.608,4.2,0a13.651,13.651,0,0,1,.748,2.209c.2.864-.22,2.681-1.109,2.971a5.273,5.273,0,0,1-2.645.051,1.442,1.442,0,0,1-.322-.422,3.648,3.648,0,0,0-1.84.314c.051.5-.287.579-.6.682-.235.93.469,2.145.3,2.993-.12.6-.864.7-1.41.811a4.639,4.639,0,0,0,.061.9,1.364,1.364,0,0,1-1.216.787,15.279,15.279,0,0,1-6.08-.3C31.759,35.6,31.39,34.2,31,32.887c-1.639.175-2.964-.707-4.214-1.285-.433-.2-1.031-.311-1.193-.655a5.9,5.9,0,0,1-.131-1.576,23.945,23.945,0,0,0-.591-4.607c-.183-.708-.5-1.333-.724-2.016a14.553,14.553,0,0,1-.658-2.045c-.139-.935.742-.987,1.3-1.392.87-.627,1.553-.973,2.5-1.538a5.683,5.683,0,0,0,1.217-.787c.19-.387-.327-.933-.465-1.236a3.718,3.718,0,0,1-.364-1.36,2.625,2.625,0,0,1-1.752-1.126,4.316,4.316,0,0,1-.5-3.738c.041-.1.243-.289.273-.438a5.064,5.064,0,0,0-.122-1c-.054-1.606.272-2.99,1.353-3.474.439-1.748,2.01-2.33,3.49-3.2A10.991,10.991,0,0,1,32.216.651c2.259-.831,5.726-.675,7.6.743a10.207,10.207,0,0,1,2.521,2.791c1.2,2.427,1.115,6.483.276,9.436a9.495,9.495,0,0,1-.505,1.455c-.159.333-.655,1-.595,1.291s1.13,1.114,1.359,1.335c.412.4,1.2.925,1.259,1.427a5.053,5.053,0,0,1-.389,1.78c-.514,1.72-1.016,3.31-1.6,4.843" transform="translate(-20.684 -0.145)"></path><path class="be" d="M112.864,114.58c.065-.087.423-.218.925.023,0,0-.594.1-.545,1.09l-.248-.05s-.256-.9-.132-1.063" transform="translate(-99.421 -100.878)"></path><path class="bm" d="M145.608,185.063a.272.272,0,1,1-.272-.273.272.272,0,0,1,.272.273" transform="translate(-127.822 -162.845)"></path><path class="bm" d="M147.9,195.688a.272.272,0,1,1-.273-.273.272.272,0,0,1,.273.273" transform="translate(-129.841 -172.207)"></path></g></g></g><g transform="translate(60.23 82.548)"><rect class="f" width="48" height="48" rx="5"></rect><rect class="i" width="48" height="48" rx="5" transform="translate(0 3)"></rect><g transform="translate(8.372 12.926)"><g transform="translate(0 -0.09)"><path class="bn" d="M18.709,21.378,15.986,6.2a8.154,8.154,0,0,0-1.205-3.17A6.456,6.456,0,0,0,10.852.217,7.278,7.278,0,0,0,2.592,10.664h0L9.2,24.816a5.46,5.46,0,0,0,.759,1.295,4.2,4.2,0,0,0,2.1,1.518A5.135,5.135,0,0,0,18.709,21.378Z" transform="translate(-0.985 0.046)"></path><path class="bo" d="M31.056,11.781a5.742,5.742,0,0,0-2.545-2.188L12.35.709h0a7.235,7.235,0,0,0-1.473-.58C3.957-1.478-1,6.111,3.421,12A6.014,6.014,0,0,0,6.1,14.013l16.295,7.322a4.989,4.989,0,0,0,1.116.491A6.6,6.6,0,0,0,31.056,11.781Z" transform="translate(-0.966 0.09)"></path><path class="bp" d="M30.091,23.153a5.793,5.793,0,0,0-3.527-2.5,6.9,6.9,0,0,0-4.286.313L5.09,27.439a2.042,2.042,0,0,0-.268.179A7.86,7.86,0,0,0,1.787,39.894a6.114,6.114,0,0,0,3.17,2.232,8.02,8.02,0,0,0,6.25-.491h.045l16.786-8.973.045-.045A6.647,6.647,0,0,0,30.091,23.153Z" transform="translate(-0.001 -11.282)"></path><path class="bq" d="M22.456,5.717a4.115,4.115,0,0,0-.4-4.018A3.545,3.545,0,0,0,19.866.137a3.966,3.966,0,0,0-4.509,1.875L1.562,18.753V18.8a7.979,7.979,0,0,0,.223,9.777,6.114,6.114,0,0,0,3.17,2.232,7.664,7.664,0,0,0,9.866-4.822Z" transform="translate(0 0.037)"></path></g><g transform="translate(5.982 5.933)"><rect width="19.286" height="19.286"></rect><rect class="ak" width="7.232" height="1.205" transform="translate(1.83 15.67)"></rect><path class="ak" d="M19.911,20.707H17.5V19.1h6.607v1.607H21.652v6.384H19.911Z" transform="translate(-15.67 -16.555)"></path><path class="ak" d="M32.5,22.952h0a4.293,4.293,0,0,1,7.322-2.9l-1.116,1.295a2.882,2.882,0,0,0-2.054-.893,2.377,2.377,0,0,0-2.321,2.5v-.045a2.35,2.35,0,0,0,2.321,2.5,2.874,2.874,0,0,0,2.1-.938l1.116,1.116A4.208,4.208,0,0,1,32.5,22.952" transform="translate(-23.973 -16.389)"></path></g></g></g><g transform="translate(172.28 59.565)"><rect class="f" width="48" height="48" rx="5" transform="matrix(0.995, 0.105, -0.105, 0.995, 5.017, 0)"></rect><path class="m" d="M5,0H43a5,5,0,0,1,5,5V43a5,5,0,0,1-5,5H5a5,5,0,0,1-5-5V5A5,5,0,0,1,5,0Z" transform="matrix(0.995, 0.105, -0.105, 0.995, 7.216, 1.144)"></path><g transform="matrix(0.995, 0.105, -0.105, 0.995, -1.242, -9.225)"><path class="br" d="M49.5,26.21V44.55l-7.638,6.036L30.3,46.033V50.4L23.87,41.98l18.887,1.443V27.185Z" transform="translate(-2.179 -3.045)"></path><path class="br" d="M30.1,22.19V17.28l10.478,6.86L21.691,28V38.935L17.48,36.991V28.345l2.959-3.466Z"></path></g></g></g><g transform="translate(1079.023 2667.5)"><g transform="translate(0 0)"><ellipse class="z" cx="44.894" cy="10.727" rx="44.894" ry="10.727" transform="translate(0.044 58.037)"></ellipse><g class="u" transform="translate(19.328)"><g transform="translate(0 0.354)"><path class="bs" d="M38.818,3H13.293A7.267,7.267,0,0,0,6,10.241V68.168a7.267,7.267,0,0,0,7.293,7.241H57.051a7.267,7.267,0,0,0,7.293-7.241V28.343Z" transform="translate(-6 -2.997)"></path><g class="w" transform="translate(-6 -3)"><path class="bv" d="M38.818,3H13.293A7.267,7.267,0,0,0,6,10.241V68.171a7.267,7.267,0,0,0,7.293,7.241H57.051a7.267,7.267,0,0,0,7.293-7.241V28.344Z"></path><path class="bx" d="M 13.29295349121094 4.999992370605469 C 10.37441253662109 4.999992370605469 8 7.351181030273438 8 10.24118041992188 L 8 68.17058563232422 C 8 71.06056213378906 10.37441253662109 73.41173553466797 13.29295349121094 73.41173553466797 L 57.05069732666016 73.41173553466797 C 59.96925354003906 73.41173553466797 62.34366607666016 71.06056213378906 62.34366607666016 68.17058563232422 L 62.34366607666016 29.17672348022461 L 37.99405288696289 4.999992370605469 L 13.29295349121094 4.999992370605469 M 13.29295349121094 2.999992370605469 L 38.81831359863281 2.999992370605469 L 64.34366607666016 28.3441162109375 L 64.34366607666016 68.17058563232422 C 64.34366607666016 72.16976928710938 61.07848739624023 75.41173553466797 57.05069732666016 75.41173553466797 L 13.29295349121094 75.41173553466797 C 9.265167236328125 75.41173553466797 6 72.16976928710938 6 68.17058563232422 L 6 10.24118041992188 C 6 6.241981506347656 9.265167236328125 2.999992370605469 13.29295349121094 2.999992370605469 Z"></path></g></g><path class="aa" d="M1.739.085c16.606,16.606,4.18,4.24,25.395,25.454,0,.652-.493,1.621-1.145,1.621H1.181A1.181,1.181,0,0,1,0,25.979V1.172C0,.52.345-.109,1.739.085Z" transform="translate(31.332 -0.049)"></path></g></g></g><rect class="x" width="46" height="20" rx="1" transform="translate(1104 2699.951)"></rect><path class="bt" d="M-15.9-9.679h-3.283v-2.075h9.056v2.075h-3.3V.027H-15.9Zm7.649-2.075H-.958v2.075H-5.775V-7.1h4.1v2.075h-4.1v2.977h5V.027H-8.247ZM5.139.243A6.37,6.37,0,0,1,2.812-.2a6.014,6.014,0,0,1-2-1.272l1.425-1.7a5.4,5.4,0,0,0,1.434.92A3.8,3.8,0,0,0,5.193-1.9a2.237,2.237,0,0,0,1.326-.334,1.083,1.083,0,0,0,.46-.929A.962.962,0,0,0,6.772-3.8a1.633,1.633,0,0,0-.523-.415q-.316-.162-1.019-.451L3.678-5.331A4.427,4.427,0,0,1,1.964-6.549,2.943,2.943,0,0,1,1.3-8.524a3.034,3.034,0,0,1,.532-1.741A3.7,3.7,0,0,1,3.3-11.51a4.73,4.73,0,0,1,2.111-.46,5.293,5.293,0,0,1,2.02.406,5.152,5.152,0,0,1,1.714,1.128L7.9-8.867a4.786,4.786,0,0,0-1.209-.722A3.463,3.463,0,0,0,5.41-9.823a1.994,1.994,0,0,0-1.173.307.982.982,0,0,0-.433.848.913.913,0,0,0,.226.631,1.787,1.787,0,0,0,.559.415q.334.162,1.037.451l1.515.613a4.264,4.264,0,0,1,1.75,1.236A3.035,3.035,0,0,1,9.5-3.365a3.3,3.3,0,0,1-.523,1.813A3.649,3.649,0,0,1,7.466-.244,5.224,5.224,0,0,1,5.139.243ZM13.51-9.679H10.226v-2.075h9.056v2.075h-3.3V.027H13.51Z" transform="translate(1126.959 2715.646)"></path><ellipse class="ak" cx="20.045" cy="18.848" rx="20.045" ry="18.848" transform="translate(1132.553 2714.321)"></ellipse><path class="bu" d="M20.863,41.729A20.87,20.87,0,0,1,12.742,1.64,20.869,20.869,0,0,1,28.983,40.089,20.733,20.733,0,0,1,20.863,41.729ZM20.849,3A17.842,17.842,0,0,0,8.228,33.469,17.853,17.853,0,1,0,20.849,3Z" transform="translate(1131.774 2711.999)"></path><ellipse class="bu" cx="10.85" cy="10.848" rx="10.85" ry="10.848" transform="translate(1141.553 2722)"></ellipse><path class="b" d="M7.733,14.787v20.3a1.324,1.324,0,0,0,1.324,1.324h6.177a1.324,1.324,0,0,0,1.324-1.324v-20.3h5.08a2.647,2.647,0,0,0,1.872-4.519L14.016.775a2.647,2.647,0,0,0-3.744,0L.781,10.267a2.647,2.647,0,0,0,1.872,4.519Z" transform="translate(1249.298 2853.289) rotate(-90)"></path></g></g></svg> 