<svg xmlns="http://www.w3.org/2000/svg" viewBox="0 0 219.53 46.54"><defs><style>.cls-1,.cls-6{fill:#fff;}.cls-2{fill:#05a2d8;}.cls-3{fill:#923b95;}.cls-4{fill:#f8a266;}.cls-5{fill:#ef516f;}.cls-6{font-size:12.64px;font-family:OpenSans-Bold, Open Sans;font-weight:700;}.cls-7{fill:#f99c5b;}</style></defs><g id="Layer_2" data-name="Layer 2"><g id="Layer_1-2" data-name="Layer 1"><path class="cls-1" d="M98.08,32.6h-10v1.86h4V44.7h2V34.46h4Z"/><path class="cls-1" d="M98.43,36.79l-.18-1H96.52v9h2V38.77a3.08,3.08,0,0,1,1.21-.94,4.23,4.23,0,0,1,1.75-.37h.35V35.57h-.35A4.06,4.06,0,0,0,98.43,36.79Z"/><path class="cls-1" d="M104.83,32.3h-2.08v2.07h2.08Z"/><path class="cls-1" d="M104.77,35.74h-2v9h2Z"/><path class="cls-1" d="M127.45,35.57a4.11,4.11,0,0,0-2.92,1.25l-.19-1.08H122.6v9h2V38.88a3.36,3.36,0,0,1,2.52-1.47c1.11,0,1.62.58,1.62,1.83V44.7h2V39.07a3.71,3.71,0,0,0-.85-2.48A3,3,0,0,0,127.45,35.57Z"/><path class="cls-1" d="M134.69,33.6l-3.54,3.47v.41h1.59v5c0,1.59.91,2.43,2.65,2.43a3.48,3.48,0,0,0,1.61-.39l.11-.06V42.83h-.38l0,0A2.27,2.27,0,0,1,135,43c-.17-.07-.26-.3-.26-.67V37.48h2.42V35.74h-2.42Z"/><path class="cls-1" d="M140.33,32.3h-2.07v2.07h2.07Z"/><path class="cls-1" d="M140.27,35.74h-2v9h2Z"/><path class="cls-1" d="M147.69,40.49a2.7,2.7,0,0,0-1.36-.85l-1.48-.39a6.55,6.55,0,0,1-1.22-.43c-.36-.18-.41-.39-.41-.54a.71.71,0,0,1,.41-.6,2.87,2.87,0,0,1,1.46-.28,5.49,5.49,0,0,1,2.11.45l0,0h.38V36.11l-.14,0a8,8,0,0,0-2.79-.49,3.61,3.61,0,0,0-2.44.79,2.65,2.65,0,0,0-.92,2.07,2.21,2.21,0,0,0,.58,1.56,2.92,2.92,0,0,0,1.36.81l1.48.39a7.58,7.58,0,0,1,1.21.43c.39.18.39.37.39.43,0,.42-.17,1-1.64,1a5.51,5.51,0,0,1-2.86-.77l-.06,0h-.36V44l.12.06a6.37,6.37,0,0,0,3.13.78,4.12,4.12,0,0,0,2.65-.75,2.39,2.39,0,0,0,.92-1.89A2.58,2.58,0,0,0,147.69,40.49Z"/><path class="cls-1" d="M117.61,35.57a4.7,4.7,0,0,0-1.57.3,4.08,4.08,0,0,0-1.36.88,4.41,4.41,0,0,0-1,1.46,5.64,5.64,0,0,0-.35,2,5.45,5.45,0,0,0,.28,1.84,3.61,3.61,0,0,0,.88,1.48,3.75,3.75,0,0,0,1.44.94,5.81,5.81,0,0,0,2.1.35,7.26,7.26,0,0,0,.93-.06c.31,0,.59-.07.86-.12s.47-.1.7-.17a4.13,4.13,0,0,0,.45-.17l-.27-1.62a6.47,6.47,0,0,1-1,.28,7.51,7.51,0,0,1-1.42.14,3.09,3.09,0,0,1-2-.6,2.42,2.42,0,0,1-.79-1.69v0h6.09c0-.1,0-.22,0-.35s0-.27,0-.38a4.87,4.87,0,0,0-1.06-3.39A3.85,3.85,0,0,0,117.61,35.57Zm1.94,3.81h-4v0a3.42,3.42,0,0,1,.19-.78,2.22,2.22,0,0,1,.4-.68,2.05,2.05,0,0,1,1.52-.66,2.21,2.21,0,0,1,.84.17,1.85,1.85,0,0,1,.59.45,2,2,0,0,1,.37.68,2.59,2.59,0,0,1,.12.82Z"/><path class="cls-1" d="M110.92,35.51a4.86,4.86,0,0,0-5.12,4.66v0a4.82,4.82,0,0,0,5.1,4.6,5.46,5.46,0,0,0,2.71-.64l0,0-.1-.09a4.46,4.46,0,0,1-.84-1.3,3.47,3.47,0,0,1-1.64.41,3,3,0,0,1-3.07-3v0a2.93,2.93,0,0,1,3-3,3.49,3.49,0,0,1,1.76.47,5,5,0,0,1,1-1.5A5.59,5.59,0,0,0,110.92,35.51Z"/><path class="cls-1" d="M73.8,43.55l-2-1.95,2.93-2.93-2.91-2.91,1.95-1.95,4.86,4.86Z"/><path class="cls-1" d="M76.79,46.54l-2-1.95,4.88-4.88,4.86,4.86-2,2-2.91-2.91Z"/><path class="cls-1" d="M79.71,37.64l-4.86-4.85,2-1.95,2.91,2.91,2.93-2.94,1.94,1.95Z"/><g id="Layer_2-2" data-name="Layer 2"><g id="Layer_1-2-2" data-name="Layer 1-2"><path class="cls-2" d="M10.38,16.36a1.37,1.37,0,0,1,.42-1L22.4,3.73a12.73,12.73,0,0,1,18,0h0l.75.75a12.71,12.71,0,0,1,3.21,12.6,1.44,1.44,0,0,1-2.81-.61c0-.06,0-.12.05-.17v0a9.87,9.87,0,0,0-2.47-9.78l-.74-.75a9.88,9.88,0,0,0-14,0h0L12.82,17.37a1.44,1.44,0,0,1-2,0A1.46,1.46,0,0,1,10.38,16.36Z"/><path class="cls-3" d="M0,31.23a12.55,12.55,0,0,1,.53-3.6,1.42,1.42,0,0,1,1.78-1,1.44,1.44,0,0,1,1,1.78,9.88,9.88,0,0,0,2.49,9.76L6.5,39a9.87,9.87,0,0,0,14,0h0L32.07,27.34a1.43,1.43,0,0,1,2,2L22.48,41a12.73,12.73,0,0,1-18,0h0l-.75-.74A12.73,12.73,0,0,1,0,31.23Z"/><path class="cls-4" d="M26.29,42.52a1.44,1.44,0,0,1,1.44-1.43,1.13,1.13,0,0,1,.41.06,9.88,9.88,0,0,0,9.78-2.49l.75-.75a9.76,9.76,0,0,0,2.89-7h0a9.79,9.79,0,0,0-2.89-7L27,12.34a1.43,1.43,0,0,1,2-2L40.69,21.94a12.61,12.61,0,0,1,3.73,9h0a12.61,12.61,0,0,1-3.73,9l-.75.74a12.76,12.76,0,0,1-12.6,3.21A1.45,1.45,0,0,1,26.29,42.52Z"/><path class="cls-5" d="M.31,13.76A12.65,12.65,0,0,1,4,4.76L4.8,4A12.71,12.71,0,0,1,17.4.81a1.44,1.44,0,0,1-.82,2.75A9.86,9.86,0,0,0,6.8,6l-.75.75a9.89,9.89,0,0,0,0,14L17.66,32.36a1.43,1.43,0,0,1-1.95,2.09l-.07-.07L4,22.76A12.6,12.6,0,0,1,.31,13.76Z"/><path class="cls-5" d="M19,35.41a2.79,2.79,0,1,1,0-3.94h0A2.8,2.8,0,0,1,19,35.41Z"/><path class="cls-4" d="M29.43,12.76a2.79,2.79,0,1,1,0-3.95h0A2.8,2.8,0,0,1,29.43,12.76Z"/><path class="cls-3" d="M35.44,29.84a2.79,2.79,0,1,1,0-3.95h0A2.78,2.78,0,0,1,35.44,29.84Z"/><path class="cls-2" d="M13.57,18.33a2.79,2.79,0,1,1,0-3.94h0A2.78,2.78,0,0,1,13.57,18.33Z"/></g></g><text class="cls-6" transform="translate(53.13 42.38)">by</text><path class="cls-1" d="M61.26,25.41V3.94H54V1.37H71.59V3.94H64.34V25.41Z"/><path class="cls-1" d="M80.42,25.84a8.54,8.54,0,0,1-3.35-.64,7.92,7.92,0,0,1-2.71-1.83,8.48,8.48,0,0,1-1.81-2.91,10.89,10.89,0,0,1-.67-3.92,10.83,10.83,0,0,1,.68-3.94,9.22,9.22,0,0,1,1.8-2.95A7.88,7.88,0,0,1,76.9,7.8a7.24,7.24,0,0,1,3-.64,7.42,7.42,0,0,1,3,.58,6,6,0,0,1,2.24,1.69,7.74,7.74,0,0,1,1.37,2.64A11.81,11.81,0,0,1,87,15.51c0,.32,0,.63,0,.94a5.18,5.18,0,0,1-.09.78h-12a7,7,0,0,0,1.78,4.53,5.51,5.51,0,0,0,4.16,1.67A7.3,7.3,0,0,0,83.15,23a10.44,10.44,0,0,0,2.07-1l1.06,2a14.6,14.6,0,0,1-2.6,1.28,8.84,8.84,0,0,1-3.26.55Zm-5.6-10.77h9.52A6.38,6.38,0,0,0,83.19,11,4,4,0,0,0,80,9.54a4.56,4.56,0,0,0-1.82.37A4.91,4.91,0,0,0,76.57,11a5.86,5.86,0,0,0-1.15,1.74,7.54,7.54,0,0,0-.6,2.34Z"/><path class="cls-1" d="M96,25.84a9.6,9.6,0,0,1-3.63-.69,11.32,11.32,0,0,1-3-1.76l1.5-2a12.06,12.06,0,0,0,2.4,1.53,6.47,6.47,0,0,0,2.84.59,3.82,3.82,0,0,0,2.64-.81,2.56,2.56,0,0,0,.88-2,2,2,0,0,0-.37-1.21,3.46,3.46,0,0,0-.93-.9,7.32,7.32,0,0,0-1.3-.68l-1.47-.58c-.64-.23-1.27-.47-1.9-.76a7.59,7.59,0,0,1-1.71-1,5.19,5.19,0,0,1-1.23-1.41,3.79,3.79,0,0,1-.47-1.94,4.76,4.76,0,0,1,.42-2,4.56,4.56,0,0,1,1.21-1.61,5.77,5.77,0,0,1,1.92-1.07,8.59,8.59,0,0,1,5.66.21,9.36,9.36,0,0,1,2.44,1.43l-1.43,1.9a10,10,0,0,0-1.91-1.14,5.31,5.31,0,0,0-2.16-.43,3.4,3.4,0,0,0-2.47.77,2.44,2.44,0,0,0-.79,1.79,1.79,1.79,0,0,0,.33,1.08,3.24,3.24,0,0,0,.88.81,7.11,7.11,0,0,0,1.27.62l1.48.57c.63.24,1.28.5,1.92.77a7.16,7.16,0,0,1,1.74,1,5,5,0,0,1,1.27,1.49,4.32,4.32,0,0,1,.49,2.12,5,5,0,0,1-.42,2.06,4.8,4.8,0,0,1-1.25,1.68,5.77,5.77,0,0,1-2,1.15,8.31,8.31,0,0,1-2.8.42Z"/><path class="cls-1" d="M111.6,25.84a5.8,5.8,0,0,1-2.4-.43,4.18,4.18,0,0,1-1.58-1.21,4.84,4.84,0,0,1-.86-1.87,11,11,0,0,1-.25-2.42V10.05h-2.64V7.78l2.79-.18.36-5h2.53v5h4.8v2.45h-4.8V20a4.43,4.43,0,0,0,.6,2.54,2.39,2.39,0,0,0,2.14.9,3.94,3.94,0,0,0,1-.15,6.76,6.76,0,0,0,1-.33l.58,2.27a14.46,14.46,0,0,1-1.59.46,7.52,7.52,0,0,1-1.7.2Z"/><path class="cls-1" d="M118.93,25.41V1.26H125a17.46,17.46,0,0,1,3.68.35,7.26,7.26,0,0,1,2.75,1.15,5.37,5.37,0,0,1,1.72,2.09A7.41,7.41,0,0,1,133.77,8a6.27,6.27,0,0,1-2.27,5.3A10.3,10.3,0,0,1,125.16,15h-4.55V25.41Zm1.68-11.8h4.14a9.31,9.31,0,0,0,5.5-1.32A4.93,4.93,0,0,0,132,8c0-2-.61-3.42-1.84-4.17a10.89,10.89,0,0,0-5.59-1.14h-4Z"/><path class="cls-1" d="M138.86,25.41V7.82h1.39l.15,3.26h.11a8.56,8.56,0,0,1,2.14-2.67,4.41,4.41,0,0,1,2.84-1,5.62,5.62,0,0,1,.92.07,3.12,3.12,0,0,1,.84.3l-.37,1.46a3.29,3.29,0,0,0-.77-.24,4.74,4.74,0,0,0-.84-.05,4.11,4.11,0,0,0-2.47,1,8.5,8.5,0,0,0-2.33,3.5v12Z"/><path class="cls-1" d="M156.52,25.84A7.42,7.42,0,0,1,151,23.43a8.82,8.82,0,0,1-1.73-2.88,11.24,11.24,0,0,1-.64-3.9,11.46,11.46,0,0,1,.64-3.94A8.68,8.68,0,0,1,151,9.8a7.4,7.4,0,0,1,5.51-2.42,7.63,7.63,0,0,1,3,.62,7.41,7.41,0,0,1,2.53,1.8,8.4,8.4,0,0,1,1.72,2.91,11,11,0,0,1,.64,3.94,10.79,10.79,0,0,1-.64,3.9,8.63,8.63,0,0,1-1.72,2.88,7.53,7.53,0,0,1-5.55,2.41Zm0-1.42a5.56,5.56,0,0,0,2.47-.57,5.69,5.69,0,0,0,2-1.6,7.61,7.61,0,0,0,1.3-2.45,9.91,9.91,0,0,0,.48-3.15,10.16,10.16,0,0,0-.48-3.19A7.81,7.81,0,0,0,161,11a5.63,5.63,0,0,0-2-1.61,5.62,5.62,0,0,0-4.93,0,5.75,5.75,0,0,0-2,1.61,8.24,8.24,0,0,0-1.3,2.47,9.87,9.87,0,0,0-.47,3.19,10.19,10.19,0,0,0,.47,3.15,8,8,0,0,0,1.3,2.45,5.84,5.84,0,0,0,2,1.6A5.55,5.55,0,0,0,156.52,24.42Z"/><path class="cls-1" d="M167.4,33.79a5.83,5.83,0,0,1-1.25-.13,4.14,4.14,0,0,1-1-.31l.4-1.31c.22.07.5.15.83.23a3.71,3.71,0,0,0,1,.13,1.84,1.84,0,0,0,1.91-1.08,7.42,7.42,0,0,0,.44-2.77V7.82h1.65V28.66a6.37,6.37,0,0,1-1,3.87,3.45,3.45,0,0,1-3,1.26Zm3.15-30.22a1.44,1.44,0,0,1-1-.41,1.3,1.3,0,0,1-.45-1,1.34,1.34,0,0,1,.45-1.08,1.48,1.48,0,0,1,1-.39,1.53,1.53,0,0,1,1.06.39,1.33,1.33,0,0,1,.44,1.08,1.32,1.32,0,0,1-.44,1,1.5,1.5,0,0,1-1.06.41Z"/><path class="cls-1" d="M184.76,25.84a8,8,0,0,1-3.16-.62A7.35,7.35,0,0,1,179,23.41a8.83,8.83,0,0,1-1.74-2.9,11,11,0,0,1-.64-3.86,11.13,11.13,0,0,1,.64-3.88A9,9,0,0,1,179,9.85,7.76,7.76,0,0,1,181.45,8a6.66,6.66,0,0,1,2.84-.64,6.13,6.13,0,0,1,5,2.13,9,9,0,0,1,1.79,6v.66a2.84,2.84,0,0,1-.07.66H178.28a10.22,10.22,0,0,0,.51,3.06,7.18,7.18,0,0,0,1.34,2.42,6.05,6.05,0,0,0,2.07,1.58,6.34,6.34,0,0,0,2.71.57,7.32,7.32,0,0,0,2.58-.43,8.11,8.11,0,0,0,2.15-1.15l.66,1.25A24.14,24.14,0,0,1,188,25.3a8.16,8.16,0,0,1-3.21.54Zm-6.48-10.33h11.21a7.77,7.77,0,0,0-1.39-5.07,4.68,4.68,0,0,0-3.77-1.67,5.38,5.38,0,0,0-2.17.46,5.7,5.7,0,0,0-1.85,1.34A7.15,7.15,0,0,0,179,12.69a9.46,9.46,0,0,0-.68,2.82Z"/><path class="cls-1" d="M202.31,25.84a7.66,7.66,0,0,1-3.17-.62,7.39,7.39,0,0,1-2.53-1.79,8.36,8.36,0,0,1-1.68-2.88,11.53,11.53,0,0,1-.61-3.9,11,11,0,0,1,.66-3.94,8.66,8.66,0,0,1,1.76-2.91A7.59,7.59,0,0,1,199.28,8a7.68,7.68,0,0,1,3.06-.62,6.26,6.26,0,0,1,3,.66,10.62,10.62,0,0,1,2.13,1.5l-.95,1.14a7.91,7.91,0,0,0-1.87-1.34,5,5,0,0,0-2.31-.53,5.46,5.46,0,0,0-2.51.57,6,6,0,0,0-2,1.61,7.92,7.92,0,0,0-1.35,2.47,9.9,9.9,0,0,0-.5,3.19,10.49,10.49,0,0,0,.46,3.15,7.56,7.56,0,0,0,1.28,2.45,5.81,5.81,0,0,0,2,1.6,6.06,6.06,0,0,0,2.62.57,5.91,5.91,0,0,0,2.58-.59,8.63,8.63,0,0,0,2.11-1.43l.84,1.14a10.91,10.91,0,0,1-2.53,1.65,7.06,7.06,0,0,1-3.07.65Z"/><path class="cls-1" d="M216.67,25.84a5,5,0,0,1-2.12-.38,3.43,3.43,0,0,1-1.36-1.08,4.15,4.15,0,0,1-.71-1.69,10.4,10.4,0,0,1-.2-2.16V9.21h-2.75V8l2.78-.14.22-5.09h1.4V7.82H219V9.21h-5.09V20.68a7.73,7.73,0,0,0,.12,1.52,3.29,3.29,0,0,0,.46,1.17,2.18,2.18,0,0,0,.9.77,3.42,3.42,0,0,0,1.48.27,4.21,4.21,0,0,0,1.12-.16,7,7,0,0,0,1.08-.39l.44,1.32a13.73,13.73,0,0,1-1.54.48,5.83,5.83,0,0,1-1.32.18Z"/><path class="cls-7" d="M170.57,0a1.93,1.93,0,1,0,1.93,1.93A1.92,1.92,0,0,0,170.57,0Z"/></g></g></svg>